<svg width="1920" height="4174" viewBox="0 0 1920 4174" fill="none" xmlns="http://www.w3.org/2000/svg">
<g opacity="0.04">
<line x1="-18.3825" y1="691.132" x2="154.521" y2="628.2" stroke="black" stroke-width="2"/>
<circle cx="168.958" cy="624.009" r="7" transform="rotate(-20 168.958 624.009)" fill="black"/>
<line x1="182.712" y1="617.939" x2="355.615" y2="555.008" stroke="black" stroke-width="2"/>
<circle cx="386.053" cy="550.817" r="7" transform="rotate(-20 386.053 550.817)" fill="black"/>
<line x1="399.806" y1="544.747" x2="572.709" y2="481.815" stroke="black" stroke-width="2"/>
<circle r="7" transform="matrix(0.939692 -0.342021 0.342019 0.939693 619.146 477.625)" fill="black"/>
<line x1="632.9" y1="471.554" x2="805.804" y2="408.623" stroke="black" stroke-width="2"/>
<circle cx="852.242" cy="404.432" r="7" transform="rotate(-20 852.242 404.432)" fill="black"/>
<line x1="865.994" y1="398.362" x2="1038.9" y2="335.431" stroke="black" stroke-width="2"/>
<circle cx="1069.34" cy="331.24" r="7" transform="rotate(-20 1069.34 331.24)" fill="black"/>
<line x1="1099.09" y1="325.17" x2="1271.99" y2="262.238" stroke="black" stroke-width="2"/>
<circle cx="1302.43" cy="258.047" r="7" transform="rotate(-20 1302.43 258.047)" fill="black"/>
<line x1="1316.18" y1="251.978" x2="1489.09" y2="189.046" stroke="black" stroke-width="2"/>
<circle cx="1535.52" cy="184.855" r="7" transform="rotate(-20 1535.52 184.855)" fill="black"/>
<line x1="1549.28" y1="178.785" x2="1722.18" y2="115.853" stroke="black" stroke-width="2"/>
<circle r="7" transform="matrix(0.939692 -0.342021 0.342019 0.939693 1768.62 111.663)" fill="black"/>
<line x1="1782.37" y1="105.593" x2="1955.27" y2="42.6614" stroke="black" stroke-width="2"/>
<line x1="-75.925" y1="831.263" x2="96.9784" y2="768.331" stroke="black" stroke-width="2"/>
<circle cx="111.416" cy="764.141" r="7" transform="rotate(-20 111.416 764.141)" fill="black"/>
<line x1="125.169" y1="758.071" x2="298.073" y2="695.139" stroke="black" stroke-width="2"/>
<circle cx="312.51" cy="690.949" r="7" transform="rotate(-20 312.51 690.949)" fill="black"/>
<line x1="342.263" y1="684.879" x2="515.167" y2="621.947" stroke="black" stroke-width="2"/>
<circle cx="545.604" cy="617.756" r="7" transform="rotate(-20 545.604 617.756)" fill="black"/>
<line x1="559.358" y1="611.686" x2="732.262" y2="548.755" stroke="black" stroke-width="2"/>
<circle cx="778.698" cy="544.564" r="7" transform="rotate(-20 778.698 544.564)" fill="black"/>
<line x1="792.452" y1="538.494" x2="965.355" y2="475.562" stroke="black" stroke-width="2"/>
<circle cx="1011.79" cy="471.372" r="7" transform="rotate(-20 1011.79 471.372)" fill="black"/>
<line x1="1025.55" y1="465.302" x2="1198.45" y2="402.37" stroke="black" stroke-width="2"/>
<circle cx="1244.89" cy="398.179" r="7" transform="rotate(-20 1244.89 398.179)" fill="black"/>
<line x1="1258.64" y1="392.109" x2="1431.54" y2="329.178" stroke="black" stroke-width="2"/>
<circle cx="1477.98" cy="324.987" r="7" transform="rotate(-20 1477.98 324.987)" fill="black"/>
<line x1="1491.74" y1="318.917" x2="1664.64" y2="255.985" stroke="black" stroke-width="2"/>
<circle cx="1695.07" cy="251.795" r="7" transform="rotate(-20 1695.07 251.795)" fill="black"/>
<line x1="1724.83" y1="245.725" x2="1897.73" y2="182.793" stroke="black" stroke-width="2"/>
<circle cx="1912.17" cy="178.602" r="7" transform="rotate(-20 1912.17 178.602)" fill="black"/>
<line x1="-142.864" y1="974.815" x2="30.039" y2="911.883" stroke="black" stroke-width="2"/>
<circle cx="44.4764" cy="907.693" r="7" transform="rotate(-20 44.4764 907.693)" fill="black"/>
<line x1="58.2298" y1="901.623" x2="231.133" y2="838.691" stroke="black" stroke-width="2"/>
<circle cx="245.571" cy="834.5" r="7" transform="rotate(-20 245.571 834.5)" fill="black"/>
<line x1="259.324" y1="828.43" x2="432.227" y2="765.499" stroke="black" stroke-width="2"/>
<circle cx="478.664" cy="761.308" r="7" transform="rotate(-20 478.664 761.308)" fill="black"/>
<line x1="492.419" y1="755.238" x2="665.322" y2="692.306" stroke="black" stroke-width="2"/>
<circle cx="695.758" cy="688.116" r="7" transform="rotate(-20 695.758 688.116)" fill="black"/>
<line x1="725.512" y1="682.046" x2="898.416" y2="619.114" stroke="black" stroke-width="2"/>
<circle cx="928.854" cy="614.923" r="7" transform="rotate(-20 928.854 614.923)" fill="black"/>
<line x1="942.606" y1="608.854" x2="1115.51" y2="545.922" stroke="black" stroke-width="2"/>
<circle cx="1161.95" cy="541.731" r="7" transform="rotate(-20 1161.95 541.731)" fill="black"/>
<line x1="1175.7" y1="535.661" x2="1348.6" y2="472.729" stroke="black" stroke-width="2"/>
<circle cx="1395.04" cy="468.539" r="7" transform="rotate(-20 1395.04 468.539)" fill="black"/>
<line x1="1408.8" y1="462.469" x2="1581.7" y2="399.537" stroke="black" stroke-width="2"/>
<circle cx="1628.14" cy="395.347" r="7" transform="rotate(-20 1628.14 395.347)" fill="black"/>
<line x1="1641.89" y1="389.276" x2="1814.79" y2="326.345" stroke="black" stroke-width="2"/>
<circle cx="1845.23" cy="322.154" r="7" transform="rotate(-20 1845.23 322.154)" fill="black"/>
<line x1="1858.98" y1="316.084" x2="2031.89" y2="253.153" stroke="black" stroke-width="2"/>
<line x1="0.687277" y1="1041.75" x2="173.591" y2="978.823" stroke="black" stroke-width="2"/>
<circle cx="188.028" cy="974.632" r="7" transform="rotate(-20 188.028 974.632)" fill="black"/>
<line x1="201.782" y1="968.562" x2="374.685" y2="905.63" stroke="black" stroke-width="2"/>
<ellipse cx="405.122" cy="901.44" rx="7" ry="7" transform="rotate(-20 405.122 901.44)" fill="black"/>
<line x1="418.876" y1="895.37" x2="591.779" y2="832.438" stroke="black" stroke-width="2"/>
<circle r="7" transform="matrix(0.939693 -0.34202 0.342021 0.939692 638.216 828.247)" fill="black"/>
<line x1="651.97" y1="822.177" x2="824.874" y2="759.246" stroke="black" stroke-width="2"/>
<circle cx="871.31" cy="755.055" r="7" transform="rotate(-20 871.31 755.055)" fill="black"/>
<line x1="885.064" y1="748.985" x2="1057.97" y2="686.053" stroke="black" stroke-width="2"/>
<circle cx="1104.41" cy="681.863" r="7" transform="rotate(-20 1104.41 681.863)" fill="black"/>
<line x1="1118.16" y1="675.793" x2="1291.06" y2="612.861" stroke="black" stroke-width="2"/>
<circle cx="1321.5" cy="608.671" r="7" transform="rotate(-20 1321.5 608.671)" fill="black"/>
<line x1="1351.25" y1="602.6" x2="1524.16" y2="539.669" stroke="black" stroke-width="2"/>
<circle cx="1554.59" cy="535.478" r="7" transform="rotate(-20 1554.59 535.478)" fill="black"/>
<line x1="1568.35" y1="529.408" x2="1741.25" y2="466.477" stroke="black" stroke-width="2"/>
<circle cx="1787.69" cy="462.286" r="7" transform="rotate(-20 1787.69 462.286)" fill="black"/>
<line x1="1801.44" y1="456.216" x2="1974.34" y2="393.284" stroke="black" stroke-width="2"/>
<line x1="-66.2517" y1="1185.31" x2="106.652" y2="1122.37" stroke="black" stroke-width="2"/>
<circle cx="121.089" cy="1118.18" r="7" transform="rotate(-20 121.089 1118.18)" fill="black"/>
<line x1="134.843" y1="1112.11" x2="307.746" y2="1049.18" stroke="black" stroke-width="2"/>
<circle cx="322.183" cy="1044.99" r="7" transform="rotate(-20 322.183 1044.99)" fill="black"/>
<line x1="351.937" y1="1038.92" x2="524.84" y2="975.99" stroke="black" stroke-width="2"/>
<ellipse cx="555.277" cy="971.799" rx="7" ry="7" transform="rotate(-20 555.277 971.799)" fill="black"/>
<line x1="585.032" y1="965.729" x2="757.935" y2="902.798" stroke="black" stroke-width="2"/>
<circle cx="788.371" cy="898.607" r="7" transform="rotate(-20 788.371 898.607)" fill="black"/>
<line x1="802.125" y1="892.537" x2="975.029" y2="829.605" stroke="black" stroke-width="2"/>
<circle r="7" transform="matrix(0.939693 -0.34202 0.342021 0.939692 1021.47 825.415)" fill="black"/>
<line x1="1035.22" y1="819.345" x2="1208.12" y2="756.413" stroke="black" stroke-width="2"/>
<circle cx="1254.56" cy="752.222" r="7" transform="rotate(-20 1254.56 752.222)" fill="black"/>
<line x1="1268.31" y1="746.152" x2="1441.22" y2="683.22" stroke="black" stroke-width="2"/>
<circle cx="1487.65" cy="679.03" r="7" transform="rotate(-20 1487.65 679.03)" fill="black"/>
<line x1="1501.41" y1="672.96" x2="1674.31" y2="610.028" stroke="black" stroke-width="2"/>
<circle cx="1704.75" cy="605.838" r="7" transform="rotate(-20 1704.75 605.838)" fill="black"/>
<line x1="1734.5" y1="599.768" x2="1907.41" y2="536.836" stroke="black" stroke-width="2"/>
<circle cx="1921.84" cy="532.645" r="7" transform="rotate(-20 1921.84 532.645)" fill="black"/>
<line x1="-123.794" y1="1325.44" x2="49.1093" y2="1262.51" stroke="black" stroke-width="2"/>
<circle cx="63.5467" cy="1258.32" r="7" transform="rotate(-20 63.5467 1258.32)" fill="black"/>
<line x1="77.3001" y1="1252.25" x2="250.204" y2="1189.31" stroke="black" stroke-width="2"/>
<circle cx="264.641" cy="1185.12" r="7" transform="rotate(-20 264.641 1185.12)" fill="black"/>
<line x1="278.394" y1="1179.05" x2="451.298" y2="1116.12" stroke="black" stroke-width="2"/>
<ellipse cx="497.735" cy="1111.93" rx="7" ry="7" transform="rotate(-20 497.735 1111.93)" fill="black"/>
<line x1="511.488" y1="1105.86" x2="684.391" y2="1042.93" stroke="black" stroke-width="2"/>
<ellipse cx="730.829" cy="1038.74" rx="7" ry="7" transform="rotate(-20 730.829 1038.74)" fill="black"/>
<line x1="744.583" y1="1032.67" x2="917.487" y2="969.737" stroke="black" stroke-width="2"/>
<circle r="7" transform="matrix(0.939693 -0.342019 0.342021 0.939692 947.923 965.546)" fill="black"/>
<line x1="977.677" y1="959.476" x2="1150.58" y2="896.544" stroke="black" stroke-width="2"/>
<circle cx="1181.02" cy="892.354" r="7" transform="rotate(-20 1181.02 892.354)" fill="black"/>
<line x1="1210.77" y1="886.284" x2="1383.67" y2="823.352" stroke="black" stroke-width="2"/>
<circle r="7" transform="matrix(0.939692 -0.342021 0.34202 0.939693 1414.11 819.161)" fill="black"/>
<line x1="1427.86" y1="813.092" x2="1600.77" y2="750.16" stroke="black" stroke-width="2"/>
<circle r="7" transform="matrix(0.939692 -0.342021 0.34202 0.939693 1647.21 745.969)" fill="black"/>
<line x1="1660.96" y1="739.899" x2="1833.86" y2="676.967" stroke="black" stroke-width="2"/>
<circle cx="1864.3" cy="672.777" r="7" transform="rotate(-20 1864.3 672.777)" fill="black"/>
<line x1="1878.05" y1="666.707" x2="2050.96" y2="603.775" stroke="black" stroke-width="2"/>
<circle cx="-3.39276" cy="1401.87" r="7" transform="rotate(-20 -3.39276 1401.87)" fill="black"/>
<line x1="10.3606" y1="1395.8" x2="183.264" y2="1332.87" stroke="black" stroke-width="2"/>
<circle cx="197.701" cy="1328.68" r="7" transform="rotate(-20 197.701 1328.68)" fill="black"/>
<line x1="211.455" y1="1322.6" x2="384.358" y2="1259.67" stroke="black" stroke-width="2"/>
<ellipse cx="414.796" cy="1255.48" rx="7" ry="7" transform="rotate(-20 414.796 1255.48)" fill="black"/>
<line x1="428.549" y1="1249.41" x2="601.453" y2="1186.48" stroke="black" stroke-width="2"/>
<ellipse cx="647.889" cy="1182.29" rx="7" ry="7" transform="rotate(-20 647.889 1182.29)" fill="black"/>
<line x1="661.644" y1="1176.22" x2="834.547" y2="1113.29" stroke="black" stroke-width="2"/>
<ellipse cx="880.983" cy="1109.1" rx="7" ry="7" transform="rotate(-20 880.983 1109.1)" fill="black"/>
<line x1="894.738" y1="1103.03" x2="1067.64" y2="1040.1" stroke="black" stroke-width="2"/>
<ellipse cx="1114.08" cy="1035.91" rx="7" ry="7" transform="rotate(-20 1114.08 1035.91)" fill="black"/>
<line x1="1127.83" y1="1029.84" x2="1300.73" y2="966.904" stroke="black" stroke-width="2"/>
<ellipse cx="1347.17" cy="962.714" rx="7" ry="7" transform="rotate(-20 1347.17 962.714)" fill="black"/>
<line x1="1360.93" y1="956.643" x2="1533.83" y2="893.712" stroke="black" stroke-width="2"/>
<ellipse cx="1564.27" cy="889.521" rx="7" ry="7" transform="rotate(-20 1564.27 889.521)" fill="black"/>
<line x1="1594.02" y1="883.451" x2="1766.92" y2="820.519" stroke="black" stroke-width="2"/>
<circle cx="1797.36" cy="816.329" r="7" transform="rotate(-20 1797.36 816.329)" fill="black"/>
<line x1="1811.11" y1="810.259" x2="1984.02" y2="747.327" stroke="black" stroke-width="2"/>
<line x1="-47.1819" y1="1535.93" x2="125.722" y2="1473" stroke="black" stroke-width="2"/>
<circle cx="140.159" cy="1468.81" r="7" transform="rotate(-20 140.159 1468.81)" fill="black"/>
<line x1="153.912" y1="1462.74" x2="326.816" y2="1399.8" stroke="black" stroke-width="2"/>
<ellipse cx="357.253" cy="1395.61" rx="7" ry="7" transform="rotate(-20 357.253 1395.61)" fill="black"/>
<line x1="371.007" y1="1389.54" x2="543.91" y2="1326.61" stroke="black" stroke-width="2"/>
<ellipse cx="574.347" cy="1322.42" rx="7" ry="7" transform="rotate(-20 574.347 1322.42)" fill="black"/>
<line x1="604.1" y1="1316.35" x2="777.003" y2="1253.42" stroke="black" stroke-width="2"/>
<ellipse cx="807.441" cy="1249.23" rx="7" ry="7" transform="rotate(-20 807.441 1249.23)" fill="black"/>
<line x1="837.196" y1="1243.16" x2="1010.1" y2="1180.23" stroke="black" stroke-width="2"/>
<ellipse cx="1040.54" cy="1176.04" rx="7" ry="7" transform="rotate(-20 1040.54 1176.04)" fill="black"/>
<line x1="1054.29" y1="1169.97" x2="1227.19" y2="1107.04" stroke="black" stroke-width="2"/>
<ellipse cx="1273.63" cy="1102.85" rx="7" ry="7" transform="rotate(-20 1273.63 1102.85)" fill="black"/>
<line x1="1287.38" y1="1096.78" x2="1460.29" y2="1033.84" stroke="black" stroke-width="2"/>
<ellipse cx="1506.72" cy="1029.65" rx="7" ry="7" transform="rotate(-20 1506.72 1029.65)" fill="black"/>
<line x1="1520.48" y1="1023.58" x2="1693.38" y2="960.651" stroke="black" stroke-width="2"/>
<ellipse cx="1739.82" cy="956.461" rx="7" ry="7" transform="rotate(-20 1739.82 956.461)" fill="black"/>
<line x1="1753.57" y1="950.39" x2="1926.48" y2="887.459" stroke="black" stroke-width="2"/>
<line x1="-114.121" y1="1679.48" x2="58.7826" y2="1616.55" stroke="black" stroke-width="2"/>
<circle cx="73.22" cy="1612.36" r="7" transform="rotate(-20 73.22 1612.36)" fill="black"/>
<line x1="86.9734" y1="1606.29" x2="259.877" y2="1543.36" stroke="black" stroke-width="2"/>
<circle cx="274.314" cy="1539.17" r="7" transform="rotate(-20 274.314 1539.17)" fill="black"/>
<line x1="288.068" y1="1533.1" x2="460.971" y2="1470.16" stroke="black" stroke-width="2"/>
<circle r="7" transform="matrix(0.939692 -0.342021 0.34202 0.939693 507.409 1465.97)" fill="black"/>
<line x1="521.161" y1="1459.9" x2="694.064" y2="1396.97" stroke="black" stroke-width="2"/>
<ellipse cx="740.502" cy="1392.78" rx="7" ry="7" transform="rotate(-20 740.502 1392.78)" fill="black"/>
<line x1="754.257" y1="1386.71" x2="927.16" y2="1323.78" stroke="black" stroke-width="2"/>
<ellipse cx="973.596" cy="1319.59" rx="7" ry="7" transform="rotate(-20 973.596 1319.59)" fill="black"/>
<line x1="987.35" y1="1313.52" x2="1160.25" y2="1250.59" stroke="black" stroke-width="2"/>
<ellipse cx="1190.69" cy="1246.4" rx="7" ry="7" transform="rotate(-20 1190.69 1246.4)" fill="black"/>
<line x1="1220.44" y1="1240.33" x2="1393.35" y2="1177.4" stroke="black" stroke-width="2"/>
<ellipse cx="1423.79" cy="1173.2" rx="7" ry="7" transform="rotate(-20 1423.79 1173.2)" fill="black"/>
<line x1="1437.54" y1="1167.13" x2="1610.44" y2="1104.2" stroke="black" stroke-width="2"/>
<ellipse cx="1656.88" cy="1100.01" rx="7" ry="7" transform="rotate(-20 1656.88 1100.01)" fill="black"/>
<line x1="1670.63" y1="1093.94" x2="1843.54" y2="1031.01" stroke="black" stroke-width="2"/>
<ellipse cx="1873.97" cy="1026.82" rx="7" ry="7" transform="rotate(-20 1873.97 1026.82)" fill="black"/>
<line x1="1887.73" y1="1020.75" x2="2060.63" y2="957.818" stroke="black" stroke-width="2"/>
<line x1="-171.663" y1="1819.61" x2="1.24013" y2="1756.68" stroke="black" stroke-width="2"/>
<circle cx="15.6776" cy="1752.49" r="7" transform="rotate(-20 15.6776 1752.49)" fill="black"/>
<line x1="29.4309" y1="1746.42" x2="202.334" y2="1683.49" stroke="black" stroke-width="2"/>
<circle cx="216.772" cy="1679.3" r="7" transform="rotate(-20 216.772 1679.3)" fill="black"/>
<line x1="230.525" y1="1673.23" x2="403.429" y2="1610.3" stroke="black" stroke-width="2"/>
<circle r="7" transform="matrix(0.939692 -0.342021 0.34202 0.939693 433.866 1606.11)" fill="black"/>
<line x1="463.619" y1="1600.04" x2="636.523" y2="1537.1" stroke="black" stroke-width="2"/>
<circle cx="666.96" cy="1532.91" r="7" transform="rotate(-20 666.96 1532.91)" fill="black"/>
<line x1="680.713" y1="1526.84" x2="853.616" y2="1463.91" stroke="black" stroke-width="2"/>
<circle cx="900.054" cy="1459.72" r="7" transform="rotate(-20 900.054 1459.72)" fill="black"/>
<line x1="913.808" y1="1453.65" x2="1086.71" y2="1390.72" stroke="black" stroke-width="2"/>
<circle r="7" transform="matrix(0.939693 -0.342019 0.342021 0.939692 1133.15 1386.53)" fill="black"/>
<line x1="1146.9" y1="1380.46" x2="1319.81" y2="1317.53" stroke="black" stroke-width="2"/>
<ellipse cx="1366.24" cy="1313.34" rx="7" ry="7" transform="rotate(-20 1366.24 1313.34)" fill="black"/>
<line x1="1380" y1="1307.27" x2="1552.9" y2="1244.33" stroke="black" stroke-width="2"/>
<ellipse cx="1599.34" cy="1240.14" rx="7" ry="7" transform="rotate(-20 1599.34 1240.14)" fill="black"/>
<line x1="1613.09" y1="1234.07" x2="1785.99" y2="1171.14" stroke="black" stroke-width="2"/>
<circle r="7" transform="matrix(0.939693 -0.342018 0.342022 0.939692 1816.43 1166.95)" fill="black"/>
<line x1="1830.19" y1="1160.88" x2="2003.09" y2="1097.95" stroke="black" stroke-width="2"/>
<line x1="-37.5085" y1="1889.97" x2="135.395" y2="1827.04" stroke="black" stroke-width="2"/>
<circle cx="149.832" cy="1822.85" r="7" transform="rotate(-20 149.832 1822.85)" fill="black"/>
<line x1="163.586" y1="1816.78" x2="336.489" y2="1753.85" stroke="black" stroke-width="2"/>
<circle r="7" transform="matrix(0.939692 -0.342021 0.342019 0.939693 366.927 1749.66)" fill="black"/>
<line x1="380.68" y1="1743.59" x2="553.583" y2="1680.66" stroke="black" stroke-width="2"/>
<circle r="7" transform="matrix(0.939693 -0.34202 0.342021 0.939692 600.021 1676.46)" fill="black"/>
<line x1="613.773" y1="1670.39" x2="786.677" y2="1607.46" stroke="black" stroke-width="2"/>
<circle cx="817.115" cy="1603.27" r="7" transform="rotate(-20 817.115 1603.27)" fill="black"/>
<line x1="846.869" y1="1597.2" x2="1019.77" y2="1534.27" stroke="black" stroke-width="2"/>
<circle r="7" transform="matrix(0.939693 -0.342019 0.342021 0.939692 1050.21 1530.08)" fill="black"/>
<line x1="1063.96" y1="1524.01" x2="1236.87" y2="1461.08" stroke="black" stroke-width="2"/>
<circle cx="1283.3" cy="1456.89" r="7" transform="rotate(-20 1283.3 1456.89)" fill="black"/>
<line x1="1297.06" y1="1450.82" x2="1469.96" y2="1387.89" stroke="black" stroke-width="2"/>
<circle cx="1516.4" cy="1383.7" r="7" transform="rotate(-20 1516.4 1383.7)" fill="black"/>
<line x1="1530.15" y1="1377.63" x2="1703.05" y2="1314.69" stroke="black" stroke-width="2"/>
<ellipse cx="1749.49" cy="1310.5" rx="7" ry="7" transform="rotate(-20 1749.49 1310.5)" fill="black"/>
<line x1="1763.25" y1="1304.43" x2="1936.15" y2="1241.5" stroke="black" stroke-width="2"/>
<line x1="-95.051" y1="2030.1" x2="77.8524" y2="1967.17" stroke="black" stroke-width="2"/>
<circle cx="92.2899" cy="1962.98" r="7" transform="rotate(-20 92.2899 1962.98)" fill="black"/>
<line x1="106.043" y1="1956.91" x2="278.947" y2="1893.98" stroke="black" stroke-width="2"/>
<circle cx="293.384" cy="1889.79" r="7" transform="rotate(-20 293.384 1889.79)" fill="black"/>
<line x1="307.137" y1="1883.72" x2="480.041" y2="1820.79" stroke="black" stroke-width="2"/>
<circle r="7" transform="matrix(0.939693 -0.34202 0.342021 0.939692 526.479 1816.6)" fill="black"/>
<line x1="540.231" y1="1810.53" x2="713.135" y2="1747.59" stroke="black" stroke-width="2"/>
<circle cx="759.573" cy="1743.4" r="7" transform="rotate(-20 759.573 1743.4)" fill="black"/>
<line x1="773.325" y1="1737.33" x2="946.228" y2="1674.4" stroke="black" stroke-width="2"/>
<circle cx="992.666" cy="1670.21" r="7" transform="rotate(-20 992.666 1670.21)" fill="black"/>
<line x1="1006.42" y1="1664.14" x2="1179.32" y2="1601.21" stroke="black" stroke-width="2"/>
<circle cx="1225.76" cy="1597.02" r="7" transform="rotate(-20 1225.76 1597.02)" fill="black"/>
<line x1="1239.51" y1="1590.95" x2="1412.42" y2="1528.02" stroke="black" stroke-width="2"/>
<circle r="7" transform="matrix(0.939692 -0.342021 0.34202 0.939693 1442.86 1523.83)" fill="black"/>
<line x1="1472.61" y1="1517.76" x2="1645.51" y2="1454.83" stroke="black" stroke-width="2"/>
<circle r="7" transform="matrix(0.939693 -0.342018 0.342022 0.939692 1675.95 1450.64)" fill="black"/>
<line x1="1689.7" y1="1444.56" x2="1862.61" y2="1381.63" stroke="black" stroke-width="2"/>
<ellipse cx="1893.04" cy="1377.44" rx="7" ry="7" transform="rotate(-20 1893.04 1377.44)" fill="black"/>
<line x1="1906.8" y1="1371.37" x2="2079.7" y2="1308.44" stroke="black" stroke-width="2"/>
<line x1="-161.99" y1="2173.66" x2="10.913" y2="2110.72" stroke="black" stroke-width="2"/>
<circle cx="25.3504" cy="2106.53" r="7" transform="rotate(-20 25.3504 2106.53)" fill="black"/>
<line x1="39.1038" y1="2100.46" x2="212.007" y2="2037.53" stroke="black" stroke-width="2"/>
<circle cx="226.445" cy="2033.34" r="7" transform="rotate(-20 226.445 2033.34)" fill="black"/>
<line x1="240.198" y1="2027.27" x2="413.101" y2="1964.34" stroke="black" stroke-width="2"/>
<circle r="7" transform="matrix(0.939692 -0.342021 0.34202 0.939693 443.539 1960.15)" fill="black"/>
<line x1="473.292" y1="1954.08" x2="646.195" y2="1891.15" stroke="black" stroke-width="2"/>
<circle cx="676.633" cy="1886.96" r="7" transform="rotate(-20 676.633 1886.96)" fill="black"/>
<line x1="690.386" y1="1880.89" x2="863.289" y2="1817.95" stroke="black" stroke-width="2"/>
<circle cx="909.727" cy="1813.76" r="7" transform="rotate(-20 909.727 1813.76)" fill="black"/>
<line x1="923.481" y1="1807.69" x2="1096.38" y2="1744.76" stroke="black" stroke-width="2"/>
<circle cx="1142.82" cy="1740.57" r="7" transform="rotate(-20 1142.82 1740.57)" fill="black"/>
<line x1="1156.57" y1="1734.5" x2="1329.48" y2="1671.57" stroke="black" stroke-width="2"/>
<circle cx="1375.92" cy="1667.38" r="7" transform="rotate(-20 1375.92 1667.38)" fill="black"/>
<line x1="1389.67" y1="1661.31" x2="1562.57" y2="1598.38" stroke="black" stroke-width="2"/>
<circle cx="1609.01" cy="1594.19" r="7" transform="rotate(-20 1609.01 1594.19)" fill="black"/>
<line x1="1622.76" y1="1588.12" x2="1795.67" y2="1525.19" stroke="black" stroke-width="2"/>
<circle cx="1826.1" cy="1520.99" r="7" transform="rotate(-20 1826.1 1520.99)" fill="black"/>
<line x1="1839.86" y1="1514.92" x2="2012.76" y2="1451.99" stroke="black" stroke-width="2"/>
<line x1="-18.4382" y1="2240.59" x2="154.465" y2="2177.66" stroke="black" stroke-width="2"/>
<circle cx="168.903" cy="2173.47" r="7" transform="rotate(-20 168.903 2173.47)" fill="black"/>
<line x1="182.656" y1="2167.4" x2="355.559" y2="2104.47" stroke="black" stroke-width="2"/>
<circle cx="385.997" cy="2100.28" r="7" transform="rotate(-20 385.997 2100.28)" fill="black"/>
<line x1="399.75" y1="2094.21" x2="572.654" y2="2031.28" stroke="black" stroke-width="2"/>
<circle cx="619.092" cy="2027.09" r="7" transform="rotate(-20 619.092 2027.09)" fill="black"/>
<line x1="632.844" y1="2021.02" x2="805.747" y2="1958.09" stroke="black" stroke-width="2"/>
<circle cx="852.185" cy="1953.9" r="7" transform="rotate(-20 852.185 1953.9)" fill="black"/>
<line x1="865.938" y1="1947.83" x2="1038.84" y2="1884.89" stroke="black" stroke-width="2"/>
<circle r="7" transform="matrix(0.939692 -0.342021 0.342019 0.939693 1069.28 1880.7)" fill="black"/>
<line x1="1099.03" y1="1874.63" x2="1271.94" y2="1811.7" stroke="black" stroke-width="2"/>
<circle cx="1302.37" cy="1807.51" r="7" transform="rotate(-20 1302.37 1807.51)" fill="black"/>
<line x1="1316.13" y1="1801.44" x2="1489.03" y2="1738.51" stroke="black" stroke-width="2"/>
<circle cx="1535.47" cy="1734.32" r="7" transform="rotate(-20 1535.47 1734.32)" fill="black"/>
<line x1="1549.22" y1="1728.25" x2="1722.12" y2="1665.32" stroke="black" stroke-width="2"/>
<circle r="7" transform="matrix(0.939693 -0.34202 0.342021 0.939692 1768.56 1661.13)" fill="black"/>
<line x1="1782.31" y1="1655.06" x2="1955.22" y2="1592.12" stroke="black" stroke-width="2"/>
<line x1="-85.3777" y1="2384.15" x2="87.5258" y2="2321.21" stroke="black" stroke-width="2"/>
<circle cx="101.963" cy="2317.02" r="7" transform="rotate(-20 101.963 2317.02)" fill="black"/>
<line x1="115.717" y1="2310.95" x2="288.62" y2="2248.02" stroke="black" stroke-width="2"/>
<circle cx="303.057" cy="2243.83" r="7" transform="rotate(-20 303.057 2243.83)" fill="black"/>
<line x1="332.811" y1="2237.76" x2="505.714" y2="2174.83" stroke="black" stroke-width="2"/>
<circle r="7" transform="matrix(0.939693 -0.34202 0.342021 0.939692 536.152 2170.64)" fill="black"/>
<line x1="549.905" y1="2164.57" x2="722.808" y2="2101.64" stroke="black" stroke-width="2"/>
<circle cx="769.246" cy="2097.45" r="7" transform="rotate(-20 769.246 2097.45)" fill="black"/>
<line x1="782.998" y1="2091.38" x2="955.902" y2="2028.45" stroke="black" stroke-width="2"/>
<circle cx="1002.34" cy="2024.26" r="7" transform="rotate(-20 1002.34 2024.26)" fill="black"/>
<line x1="1016.09" y1="2018.18" x2="1189" y2="1955.25" stroke="black" stroke-width="2"/>
<circle cx="1235.43" cy="1951.06" r="7" transform="rotate(-20 1235.43 1951.06)" fill="black"/>
<line x1="1249.19" y1="1944.99" x2="1422.09" y2="1882.06" stroke="black" stroke-width="2"/>
<circle cx="1452.53" cy="1877.87" r="7" transform="rotate(-20 1452.53 1877.87)" fill="black"/>
<line x1="1482.28" y1="1871.8" x2="1655.18" y2="1808.87" stroke="black" stroke-width="2"/>
<circle cx="1685.62" cy="1804.68" r="7" transform="rotate(-20 1685.62 1804.68)" fill="black"/>
<line x1="1715.38" y1="1798.61" x2="1888.28" y2="1735.68" stroke="black" stroke-width="2"/>
<circle cx="1902.72" cy="1731.49" r="7" transform="rotate(-20 1902.72 1731.49)" fill="black"/>
<line x1="1916.47" y1="1725.42" x2="2089.37" y2="1662.48" stroke="black" stroke-width="2"/>
<line x1="-142.92" y1="2524.28" x2="29.9833" y2="2461.35" stroke="black" stroke-width="2"/>
<circle cx="44.4207" cy="2457.16" r="7" transform="rotate(-20 44.4207 2457.16)" fill="black"/>
<line x1="58.1741" y1="2451.09" x2="231.078" y2="2388.15" stroke="black" stroke-width="2"/>
<circle cx="245.515" cy="2383.96" r="7" transform="rotate(-20 245.515 2383.96)" fill="black"/>
<line x1="259.268" y1="2377.89" x2="432.172" y2="2314.96" stroke="black" stroke-width="2"/>
<circle cx="478.61" cy="2310.77" r="7" transform="rotate(-20 478.61 2310.77)" fill="black"/>
<line x1="492.363" y1="2304.7" x2="665.266" y2="2241.77" stroke="black" stroke-width="2"/>
<circle cx="695.704" cy="2237.58" r="7" transform="rotate(-20 695.704 2237.58)" fill="black"/>
<line x1="725.456" y1="2231.51" x2="898.36" y2="2168.58" stroke="black" stroke-width="2"/>
<circle cx="928.798" cy="2164.39" r="7" transform="rotate(-20 928.798 2164.39)" fill="black"/>
<line x1="942.55" y1="2158.32" x2="1115.45" y2="2095.38" stroke="black" stroke-width="2"/>
<circle cx="1161.89" cy="2091.19" r="7" transform="rotate(-20 1161.89 2091.19)" fill="black"/>
<line x1="1175.65" y1="2085.12" x2="1348.55" y2="2022.19" stroke="black" stroke-width="2"/>
<circle cx="1394.99" cy="2018" r="7" transform="rotate(-20 1394.99 2018)" fill="black"/>
<line x1="1408.74" y1="2011.93" x2="1581.64" y2="1949" stroke="black" stroke-width="2"/>
<circle cx="1628.08" cy="1944.81" r="7" transform="rotate(-20 1628.08 1944.81)" fill="black"/>
<line x1="1641.83" y1="1938.74" x2="1814.74" y2="1875.81" stroke="black" stroke-width="2"/>
<circle r="7" transform="matrix(0.939692 -0.342021 0.342019 0.939693 1845.17 1871.62)" fill="black"/>
<line x1="1858.93" y1="1865.55" x2="2031.83" y2="1802.62" stroke="black" stroke-width="2"/>
<line x1="-8.76536" y1="2594.64" x2="164.138" y2="2531.71" stroke="black" stroke-width="2"/>
<circle cx="178.576" cy="2527.52" r="7" transform="rotate(-20 178.576 2527.52)" fill="black"/>
<line x1="192.329" y1="2521.45" x2="365.232" y2="2458.51" stroke="black" stroke-width="2"/>
<circle cx="395.67" cy="2454.32" r="7" transform="rotate(-20 395.67 2454.32)" fill="black"/>
<line x1="409.423" y1="2448.25" x2="582.327" y2="2385.32" stroke="black" stroke-width="2"/>
<circle cx="628.764" cy="2381.13" r="7" transform="rotate(-20 628.764 2381.13)" fill="black"/>
<line x1="642.517" y1="2375.06" x2="815.42" y2="2312.13" stroke="black" stroke-width="2"/>
<circle cx="861.858" cy="2307.94" r="7" transform="rotate(-20 861.858 2307.94)" fill="black"/>
<line x1="875.611" y1="2301.87" x2="1048.51" y2="2238.94" stroke="black" stroke-width="2"/>
<circle cx="1094.95" cy="2234.75" r="7" transform="rotate(-20 1094.95 2234.75)" fill="black"/>
<line x1="1108.71" y1="2228.68" x2="1281.61" y2="2165.74" stroke="black" stroke-width="2"/>
<circle cx="1312.05" cy="2161.55" r="7" transform="rotate(-20 1312.05 2161.55)" fill="black"/>
<line x1="1341.8" y1="2155.48" x2="1514.7" y2="2092.55" stroke="black" stroke-width="2"/>
<circle cx="1545.14" cy="2088.36" r="7" transform="rotate(-20 1545.14 2088.36)" fill="black"/>
<line x1="1558.89" y1="2082.29" x2="1731.8" y2="2019.36" stroke="black" stroke-width="2"/>
<circle cx="1778.23" cy="2015.17" r="7" transform="rotate(-20 1778.23 2015.17)" fill="black"/>
<line x1="1791.99" y1="2009.1" x2="1964.89" y2="1946.17" stroke="black" stroke-width="2"/>
<line x1="-66.3078" y1="2734.77" x2="106.596" y2="2671.84" stroke="black" stroke-width="2"/>
<circle cx="121.033" cy="2667.65" r="7" transform="rotate(-20 121.033 2667.65)" fill="black"/>
<line x1="134.786" y1="2661.58" x2="307.69" y2="2598.65" stroke="black" stroke-width="2"/>
<circle cx="322.127" cy="2594.45" r="7" transform="rotate(-20 322.127 2594.45)" fill="black"/>
<line x1="351.881" y1="2588.38" x2="524.784" y2="2525.45" stroke="black" stroke-width="2"/>
<circle cx="555.222" cy="2521.26" r="7" transform="rotate(-20 555.222 2521.26)" fill="black"/>
<line x1="584.975" y1="2515.19" x2="757.878" y2="2452.26" stroke="black" stroke-width="2"/>
<circle cx="788.316" cy="2448.07" r="7" transform="rotate(-20 788.316 2448.07)" fill="black"/>
<line x1="802.069" y1="2442" x2="974.972" y2="2379.07" stroke="black" stroke-width="2"/>
<circle r="7" transform="matrix(0.939693 -0.342019 0.342021 0.939692 1021.41 2374.88)" fill="black"/>
<line x1="1035.16" y1="2368.81" x2="1208.07" y2="2305.88" stroke="black" stroke-width="2"/>
<circle cx="1254.5" cy="2301.69" r="7" transform="rotate(-20 1254.5 2301.69)" fill="black"/>
<line x1="1268.26" y1="2295.62" x2="1441.16" y2="2232.68" stroke="black" stroke-width="2"/>
<circle cx="1487.6" cy="2228.49" r="7" transform="rotate(-20 1487.6 2228.49)" fill="black"/>
<line x1="1501.35" y1="2222.42" x2="1674.26" y2="2159.49" stroke="black" stroke-width="2"/>
<circle cx="1704.69" cy="2155.3" r="7" transform="rotate(-20 1704.69 2155.3)" fill="black"/>
<line x1="1734.45" y1="2149.23" x2="1907.35" y2="2086.3" stroke="black" stroke-width="2"/>
<circle cx="1921.79" cy="2082.11" r="7" transform="rotate(-20 1921.79 2082.11)" fill="black"/>
<line x1="-133.247" y1="2878.32" x2="39.6566" y2="2815.39" stroke="black" stroke-width="2"/>
<circle cx="54.0941" cy="2811.2" r="7" transform="rotate(-20 54.0941 2811.2)" fill="black"/>
<line x1="67.8474" y1="2805.13" x2="240.751" y2="2742.2" stroke="black" stroke-width="2"/>
<circle cx="255.188" cy="2738.01" r="7" transform="rotate(-20 255.188 2738.01)" fill="black"/>
<line x1="268.942" y1="2731.94" x2="441.845" y2="2669" stroke="black" stroke-width="2"/>
<circle cx="488.284" cy="2664.81" r="7" transform="rotate(-20 488.284 2664.81)" fill="black"/>
<line x1="502.036" y1="2658.74" x2="674.939" y2="2595.81" stroke="black" stroke-width="2"/>
<circle cx="721.377" cy="2591.62" r="7" transform="rotate(-20 721.377 2591.62)" fill="black"/>
<line x1="735.13" y1="2585.55" x2="908.033" y2="2522.62" stroke="black" stroke-width="2"/>
<circle r="7" transform="matrix(0.939692 -0.342022 0.342018 0.939693 938.471 2518.43)" fill="black"/>
<line x1="968.223" y1="2512.36" x2="1141.13" y2="2449.43" stroke="black" stroke-width="2"/>
<circle cx="1171.56" cy="2445.24" r="7" transform="rotate(-20 1171.56 2445.24)" fill="black"/>
<line x1="1185.32" y1="2439.17" x2="1358.22" y2="2376.24" stroke="black" stroke-width="2"/>
<circle cx="1404.66" cy="2372.04" r="7" transform="rotate(-20 1404.66 2372.04)" fill="black"/>
<line x1="1418.41" y1="2365.97" x2="1591.32" y2="2303.04" stroke="black" stroke-width="2"/>
<circle r="7" transform="matrix(0.939692 -0.342022 0.342018 0.939693 1637.75 2298.85)" fill="black"/>
<line x1="1651.51" y1="2292.78" x2="1824.41" y2="2229.85" stroke="black" stroke-width="2"/>
<circle cx="1854.85" cy="2225.66" r="7" transform="rotate(-20 1854.85 2225.66)" fill="black"/>
<line x1="1868.6" y1="2219.59" x2="2041.5" y2="2156.66" stroke="black" stroke-width="2"/>
<circle cx="-3.44842" cy="2951.33" r="7" transform="rotate(-20 -3.44842 2951.33)" fill="black"/>
<line x1="10.305" y1="2945.26" x2="183.208" y2="2882.33" stroke="black" stroke-width="2"/>
<circle cx="197.646" cy="2878.14" r="7" transform="rotate(-20 197.646 2878.14)" fill="black"/>
<line x1="211.399" y1="2872.07" x2="384.303" y2="2809.14" stroke="black" stroke-width="2"/>
<circle cx="414.74" cy="2804.95" r="7" transform="rotate(-20 414.74 2804.95)" fill="black"/>
<line x1="428.493" y1="2798.88" x2="601.397" y2="2735.94" stroke="black" stroke-width="2"/>
<circle r="7" transform="matrix(0.939693 -0.34202 0.342021 0.939692 647.835 2731.75)" fill="black"/>
<line x1="661.588" y1="2725.68" x2="834.491" y2="2662.75" stroke="black" stroke-width="2"/>
<circle cx="880.929" cy="2658.56" r="7" transform="rotate(-20 880.929 2658.56)" fill="black"/>
<line x1="894.681" y1="2652.49" x2="1067.58" y2="2589.56" stroke="black" stroke-width="2"/>
<circle cx="1114.02" cy="2585.37" r="7" transform="rotate(-20 1114.02 2585.37)" fill="black"/>
<line x1="1127.78" y1="2579.3" x2="1300.68" y2="2516.37" stroke="black" stroke-width="2"/>
<circle cx="1347.12" cy="2512.18" r="7" transform="rotate(-20 1347.12 2512.18)" fill="black"/>
<line x1="1360.87" y1="2506.11" x2="1533.77" y2="2443.17" stroke="black" stroke-width="2"/>
<circle cx="1564.21" cy="2438.98" r="7" transform="rotate(-20 1564.21 2438.98)" fill="black"/>
<line x1="1593.96" y1="2432.91" x2="1766.87" y2="2369.98" stroke="black" stroke-width="2"/>
<circle cx="1797.31" cy="2365.79" r="7" transform="rotate(-20 1797.31 2365.79)" fill="black"/>
<line x1="1811.06" y1="2359.72" x2="1983.96" y2="2296.79" stroke="black" stroke-width="2"/>
<line x1="-56.6345" y1="3088.81" x2="116.269" y2="3025.88" stroke="black" stroke-width="2"/>
<circle cx="130.706" cy="3021.69" r="7" transform="rotate(-20 130.706 3021.69)" fill="black"/>
<line x1="144.46" y1="3015.62" x2="317.363" y2="2952.69" stroke="black" stroke-width="2"/>
<ellipse cx="347.801" cy="2948.5" rx="7" ry="7" transform="rotate(-20 347.801 2948.5)" fill="black"/>
<line x1="361.554" y1="2942.43" x2="534.457" y2="2879.5" stroke="black" stroke-width="2"/>
<circle cx="564.896" cy="2875.31" r="7" transform="rotate(-20 564.896 2875.31)" fill="black"/>
<line x1="594.648" y1="2869.24" x2="767.552" y2="2806.3" stroke="black" stroke-width="2"/>
<circle cx="797.99" cy="2802.11" r="7" transform="rotate(-20 797.99 2802.11)" fill="black"/>
<line x1="811.742" y1="2796.04" x2="984.645" y2="2733.11" stroke="black" stroke-width="2"/>
<circle cx="1031.08" cy="2728.92" r="7" transform="rotate(-20 1031.08 2728.92)" fill="black"/>
<line x1="1044.84" y1="2722.85" x2="1217.74" y2="2659.92" stroke="black" stroke-width="2"/>
<circle cx="1264.18" cy="2655.73" r="7" transform="rotate(-20 1264.18 2655.73)" fill="black"/>
<line x1="1277.93" y1="2649.66" x2="1450.83" y2="2586.73" stroke="black" stroke-width="2"/>
<circle cx="1497.27" cy="2582.54" r="7" transform="rotate(-20 1497.27 2582.54)" fill="black"/>
<line x1="1511.03" y1="2576.47" x2="1683.93" y2="2513.53" stroke="black" stroke-width="2"/>
<circle cx="1730.37" cy="2509.34" r="7" transform="rotate(-20 1730.37 2509.34)" fill="black"/>
<line x1="1744.12" y1="2503.27" x2="1917.02" y2="2440.34" stroke="black" stroke-width="2"/>
<line x1="-114.177" y1="3228.94" x2="58.7265" y2="3166.01" stroke="black" stroke-width="2"/>
<circle cx="73.1639" cy="3161.82" r="7" transform="rotate(-20 73.1639 3161.82)" fill="black"/>
<line x1="86.9173" y1="3155.75" x2="259.821" y2="3092.82" stroke="black" stroke-width="2"/>
<circle cx="274.258" cy="3088.63" r="7" transform="rotate(-20 274.258 3088.63)" fill="black"/>
<line x1="288.011" y1="3082.56" x2="460.915" y2="3019.63" stroke="black" stroke-width="2"/>
<circle cx="507.352" cy="3015.44" r="7" transform="rotate(-20 507.352 3015.44)" fill="black"/>
<line x1="521.106" y1="3009.37" x2="694.01" y2="2946.44" stroke="black" stroke-width="2"/>
<circle cx="740.448" cy="2942.24" r="7" transform="rotate(-20 740.448 2942.24)" fill="black"/>
<line x1="754.2" y1="2936.17" x2="927.103" y2="2873.24" stroke="black" stroke-width="2"/>
<circle r="7" transform="matrix(0.939693 -0.342019 0.342021 0.939692 973.541 2869.05)" fill="black"/>
<line x1="987.294" y1="2862.98" x2="1160.2" y2="2800.05" stroke="black" stroke-width="2"/>
<circle cx="1190.64" cy="2795.86" r="7" transform="rotate(-20 1190.64 2795.86)" fill="black"/>
<line x1="1220.39" y1="2789.79" x2="1393.29" y2="2726.86" stroke="black" stroke-width="2"/>
<circle cx="1423.73" cy="2722.67" r="7" transform="rotate(-20 1423.73 2722.67)" fill="black"/>
<line x1="1437.48" y1="2716.6" x2="1610.39" y2="2653.67" stroke="black" stroke-width="2"/>
<circle cx="1656.82" cy="2649.48" r="7" transform="rotate(-20 1656.82 2649.48)" fill="black"/>
<line x1="1670.58" y1="2643.41" x2="1843.48" y2="2580.47" stroke="black" stroke-width="2"/>
<circle cx="1873.92" cy="2576.28" r="7" transform="rotate(-20 1873.92 2576.28)" fill="black"/>
<line x1="1887.67" y1="2570.21" x2="2060.57" y2="2507.28" stroke="black" stroke-width="2"/>
<circle r="7" transform="matrix(0.939691 -0.342025 0.342015 0.939694 6.22487 3332.37)" fill="black"/>
<line x1="19.9783" y1="3299.3" x2="192.882" y2="3236.37" stroke="black" stroke-width="2"/>
<circle cx="207.319" cy="3232.18" r="7" transform="rotate(-20 207.319 3232.18)" fill="black"/>
<line x1="221.073" y1="3226.11" x2="393.976" y2="3163.18" stroke="black" stroke-width="2"/>
<circle cx="424.413" cy="3158.99" r="7" transform="rotate(-20 424.413 3158.99)" fill="black"/>
<line x1="438.167" y1="3152.92" x2="611.07" y2="3089.99" stroke="black" stroke-width="2"/>
<circle r="7" transform="matrix(0.939692 -0.342022 0.342018 0.939693 657.509 3085.8)" fill="black"/>
<line x1="671.261" y1="3079.73" x2="844.164" y2="3016.79" stroke="black" stroke-width="2"/>
<circle cx="890.602" cy="3012.6" r="7" transform="rotate(-20 890.602 3012.6)" fill="black"/>
<line x1="904.355" y1="3006.53" x2="1077.26" y2="2943.6" stroke="black" stroke-width="2"/>
<circle cx="1123.7" cy="2939.41" r="7" transform="rotate(-20 1123.7 2939.41)" fill="black"/>
<line x1="1137.45" y1="2933.34" x2="1310.35" y2="2870.41" stroke="black" stroke-width="2"/>
<circle cx="1356.79" cy="2866.22" r="7" transform="rotate(-20 1356.79 2866.22)" fill="black"/>
<line y1="-1" x2="184" y2="-1" transform="matrix(0.939693 -0.34202 0.342021 0.939692 1370.89 2861.09)" stroke="black" stroke-width="2"/>
<circle r="7" transform="matrix(0.939692 -0.342022 0.342018 0.939693 1573.88 2793.03)" fill="black"/>
<line x1="1603.64" y1="2786.96" x2="1776.54" y2="2724.03" stroke="black" stroke-width="2"/>
<circle cx="1806.98" cy="2719.83" r="7" transform="rotate(-20 1806.98 2719.83)" fill="black"/>
<line x1="1820.73" y1="2713.76" x2="1993.64" y2="2650.83" stroke="black" stroke-width="2"/>
<line x1="-37.5642" y1="3466.44" x2="135.339" y2="3403.5" stroke="black" stroke-width="2"/>
<circle r="7" transform="matrix(0.939695 -0.342015 0.342026 0.939691 149.777 3399.31)" fill="black"/>
<line x1="163.53" y1="3393.24" x2="336.434" y2="3330.31" stroke="black" stroke-width="2"/>
<circle r="7" transform="matrix(0.939691 -0.342025 0.342015 0.939695 366.871 3326.12)" fill="black"/>
<line y1="-1" x2="184" y2="-1" transform="matrix(0.939692 -0.342021 0.342019 0.939693 380.966 3293.99)" stroke="black" stroke-width="2"/>
<circle r="7" transform="matrix(0.939692 -0.342022 0.342018 0.939693 599.965 3225.93)" fill="black"/>
<line x1="613.719" y1="3219.86" x2="786.622" y2="3156.93" stroke="black" stroke-width="2"/>
<circle cx="817.06" cy="3152.74" r="7" transform="rotate(-20 817.06 3152.74)" fill="black"/>
<line x1="846.812" y1="3146.67" x2="1019.72" y2="3083.73" stroke="black" stroke-width="2"/>
<circle cx="1050.15" cy="3079.54" r="7" transform="rotate(-20 1050.15 3079.54)" fill="black"/>
<line x1="1063.91" y1="3073.47" x2="1236.81" y2="3010.54" stroke="black" stroke-width="2"/>
<circle r="7" transform="matrix(0.939692 -0.342022 0.342018 0.939693 1283.25 3006.35)" fill="black"/>
<line y1="-1" x2="184" y2="-1" transform="matrix(0.939692 -0.342021 0.34202 0.939693 1297.34 3001.22)" stroke="black" stroke-width="2"/>
<circle cx="1516.34" cy="2933.16" r="7" transform="rotate(-20 1516.34 2933.16)" fill="black"/>
<line x1="1530.1" y1="2927.09" x2="1703" y2="2864.16" stroke="black" stroke-width="2"/>
<circle cx="1749.43" cy="2859.97" r="7" transform="rotate(-20 1749.43 2859.97)" fill="black"/>
<line x1="1763.19" y1="2853.9" x2="1936.09" y2="2790.97" stroke="black" stroke-width="2"/>
<line x1="-104.504" y1="3609.99" x2="68.3998" y2="3547.06" stroke="black" stroke-width="2"/>
<circle r="7" transform="matrix(0.939691 -0.342025 0.342016 0.939694 82.8372 3542.86)" fill="black"/>
<line y1="-1" x2="184" y2="-1" transform="matrix(0.939692 -0.342021 0.342019 0.939693 96.9326 3537.73)" stroke="black" stroke-width="2"/>
<circle r="7" transform="matrix(0.939691 -0.342025 0.342016 0.939694 283.931 3469.67)" fill="black"/>
<line x1="297.685" y1="3463.6" x2="470.588" y2="3400.67" stroke="black" stroke-width="2"/>
<circle r="7" transform="matrix(0.939691 -0.342025 0.342016 0.939694 517.025 3396.48)" fill="black"/>
<line x1="530.78" y1="3390.41" x2="703.683" y2="3327.48" stroke="black" stroke-width="2"/>
<circle r="7" transform="matrix(0.939691 -0.342025 0.342015 0.939694 750.121 3323.29)" fill="black"/>
<line x1="763.873" y1="3290.22" x2="936.777" y2="3227.29" stroke="black" stroke-width="2"/>
<circle r="7" transform="matrix(0.939692 -0.342022 0.342018 0.939693 983.215 3223.1)" fill="black"/>
<line x1="996.967" y1="3217.03" x2="1169.87" y2="3154.09" stroke="black" stroke-width="2"/>
<circle cx="1200.31" cy="3149.9" r="7" transform="rotate(-20 1200.31 3149.9)" fill="black"/>
<line x1="1230.06" y1="3143.83" x2="1402.96" y2="3080.9" stroke="black" stroke-width="2"/>
<circle cx="1433.4" cy="3076.71" r="7" transform="rotate(-20 1433.4 3076.71)" fill="black"/>
<line x1="1463.16" y1="3070.64" x2="1636.06" y2="3007.71" stroke="black" stroke-width="2"/>
<circle r="7" transform="matrix(0.939693 -0.342018 0.342022 0.939692 1666.5 3003.52)" fill="black"/>
<line x1="1680.25" y1="2997.45" x2="1853.15" y2="2934.52" stroke="black" stroke-width="2"/>
<circle cx="1883.59" cy="2930.33" r="7" transform="rotate(-20 1883.59 2930.33)" fill="black"/>
<line y1="-1" x2="184" y2="-1" transform="matrix(0.939693 -0.34202 0.342021 0.939692 1897.69 2925.2)" stroke="black" stroke-width="2"/>
<line x1="-162.046" y1="3750.12" x2="10.8573" y2="3687.19" stroke="black" stroke-width="2"/>
<circle r="7" transform="matrix(0.939691 -0.342025 0.342015 0.939694 25.2947 3683)" fill="black"/>
<line y1="-1" x2="184" y2="-1" transform="matrix(0.939692 -0.342021 0.342019 0.939693 39.3901 3677.87)" stroke="black" stroke-width="2"/>
<circle r="7" transform="matrix(0.939695 -0.342015 0.342026 0.939691 226.389 3609.8)" fill="black"/>
<line x1="240.142" y1="3603.73" x2="413.046" y2="3540.8" stroke="black" stroke-width="2"/>
<circle r="7" transform="matrix(0.939695 -0.342014 0.342026 0.939691 443.483 3536.61)" fill="black"/>
<line y1="-1" x2="184" y2="-1" transform="matrix(0.939692 -0.342021 0.342019 0.939693 473.58 3531.48)" stroke="black" stroke-width="2"/>
<circle r="7" transform="matrix(0.939695 -0.342014 0.342026 0.93969 676.577 3463.42)" fill="black"/>
<line y1="-1" x2="184" y2="-1" transform="matrix(0.939692 -0.342021 0.342019 0.939693 690.673 3458.29)" stroke="black" stroke-width="2"/>
<circle r="7" transform="matrix(0.939695 -0.342014 0.342026 0.93969 909.673 3390.23)" fill="black"/>
<line y1="-1" x2="184" y2="-1" transform="matrix(0.939692 -0.342021 0.342019 0.939693 923.767 3385.1)" stroke="black" stroke-width="2"/>
<circle r="7" transform="matrix(0.939693 -0.342018 0.342022 0.939692 1142.77 3290.04)" fill="black"/>
<line y1="-1" x2="184" y2="-1" transform="matrix(0.939692 -0.342021 0.342019 0.939693 1156.86 3284.9)" stroke="black" stroke-width="2"/>
<circle r="7" transform="matrix(0.939693 -0.342018 0.342022 0.939692 1375.86 3216.84)" fill="black"/>
<line x1="1389.61" y1="3210.77" x2="1562.52" y2="3147.84" stroke="black" stroke-width="2"/>
<circle r="7" transform="matrix(0.939693 -0.342018 0.342022 0.939692 1608.95 3143.65)" fill="black"/>
<line x1="1622.71" y1="3137.58" x2="1795.61" y2="3074.65" stroke="black" stroke-width="2"/>
<circle cx="1826.05" cy="3070.46" r="7" transform="rotate(-20 1826.05 3070.46)" fill="black"/>
<line x1="1839.8" y1="3064.39" x2="2012.71" y2="3001.46" stroke="black" stroke-width="2"/>
<line y1="-1" x2="184" y2="-1" transform="matrix(0.939692 -0.342021 0.342019 0.939693 -27.5488 3821.42)" stroke="black" stroke-width="2"/>
<circle r="7" transform="matrix(0.939691 -0.342025 0.342016 0.939694 159.45 3753.36)" fill="black"/>
<line x1="173.203" y1="3747.29" x2="346.107" y2="3684.35" stroke="black" stroke-width="2"/>
<circle r="7" transform="matrix(0.939695 -0.342014 0.342026 0.93969 376.544 3680.16)" fill="black"/>
<line x1="390.298" y1="3674.09" x2="563.201" y2="3611.16" stroke="black" stroke-width="2"/>
<circle r="7" transform="matrix(0.939695 -0.342015 0.342026 0.939691 609.638 3606.97)" fill="black"/>
<line y1="-1" x2="184" y2="-1" transform="matrix(0.939692 -0.342021 0.342019 0.939693 623.734 3601.84)" stroke="black" stroke-width="2"/>
<circle r="7" transform="matrix(0.939695 -0.342014 0.342026 0.93969 826.734 3533.78)" fill="black"/>
<line y1="-1" x2="184" y2="-1" transform="matrix(0.939692 -0.342021 0.342019 0.939693 856.828 3528.65)" stroke="black" stroke-width="2"/>
<circle r="7" transform="matrix(0.939695 -0.342014 0.342026 0.93969 1059.83 3460.59)" fill="black"/>
<line y1="-1" x2="184" y2="-1" transform="matrix(0.939692 -0.342021 0.342019 0.939693 1089.92 3455.46)" stroke="black" stroke-width="2"/>
<circle r="7" transform="matrix(0.939695 -0.342014 0.342026 0.93969 1292.92 3387.39)" fill="black"/>
<line y1="-1" x2="184" y2="-1" transform="matrix(0.939693 -0.34202 0.342021 0.939692 1307.02 3382.26)" stroke="black" stroke-width="2"/>
<circle r="7" transform="matrix(0.939693 -0.342018 0.342022 0.939692 1526.01 3287.2)" fill="black"/>
<line y1="-1" x2="184" y2="-1" transform="matrix(0.939692 -0.342021 0.342019 0.939693 1540.11 3282.07)" stroke="black" stroke-width="2"/>
<circle r="7" transform="matrix(0.939693 -0.342018 0.342022 0.939692 1759.11 3214.01)" fill="black"/>
<line y1="-1" x2="184" y2="-1" transform="matrix(0.939692 -0.342021 0.342019 0.939693 1773.21 3208.88)" stroke="black" stroke-width="2"/>
<line x1="-85.4333" y1="3960.61" x2="87.4701" y2="3897.68" stroke="black" stroke-width="2"/>
<circle r="7" transform="matrix(0.939691 -0.342025 0.342016 0.939694 101.907 3893.49)" fill="black"/>
<line x1="115.661" y1="3887.42" x2="288.564" y2="3824.49" stroke="black" stroke-width="2"/>
<circle r="7" transform="matrix(0.939695 -0.342015 0.342025 0.939691 303.002 3820.3)" fill="black"/>
<line x1="332.755" y1="3814.23" x2="505.659" y2="3751.29" stroke="black" stroke-width="2"/>
<circle r="7" transform="matrix(0.939691 -0.342025 0.342015 0.939695 536.096 3747.1)" fill="black"/>
<line x1="549.85" y1="3741.03" x2="722.754" y2="3678.1" stroke="black" stroke-width="2"/>
<circle r="7" transform="matrix(0.939691 -0.342025 0.342015 0.939694 769.19 3673.91)" fill="black"/>
<line x1="782.944" y1="3667.84" x2="955.848" y2="3604.91" stroke="black" stroke-width="2"/>
<circle r="7" transform="matrix(0.939691 -0.342025 0.342015 0.939694 1002.29 3600.72)" fill="black"/>
<line x1="1016.04" y1="3594.65" x2="1188.94" y2="3531.72" stroke="black" stroke-width="2"/>
<circle r="7" transform="matrix(0.939691 -0.342026 0.342014 0.939695 1235.38 3527.53)" fill="black"/>
<line x1="1249.13" y1="3521.46" x2="1422.04" y2="3458.52" stroke="black" stroke-width="2"/>
<circle r="7" transform="matrix(0.939691 -0.342024 0.342017 0.939694 1452.47 3454.33)" fill="black"/>
<line x1="1482.23" y1="3448.26" x2="1655.13" y2="3385.33" stroke="black" stroke-width="2"/>
<circle r="7" transform="matrix(0.93969 -0.342026 0.342014 0.939695 1685.57 3381.14)" fill="black"/>
<line y1="-1" x2="184" y2="-1" transform="matrix(0.939693 -0.34202 0.342021 0.939692 1715.66 3376.01)" stroke="black" stroke-width="2"/>
<circle r="7" transform="matrix(0.939692 -0.342022 0.342018 0.939693 1902.66 3280.95)" fill="black"/>
<line y1="-1" x2="184" y2="-1" transform="matrix(0.939693 -0.34202 0.342021 0.939692 1916.76 3275.82)" stroke="black" stroke-width="2"/>
<line x1="-152.373" y1="4104.16" x2="20.5307" y2="4041.23" stroke="black" stroke-width="2"/>
<circle r="7" transform="matrix(0.939691 -0.342025 0.342015 0.939694 34.968 4037.04)" fill="black"/>
<line x1="48.7215" y1="4030.97" x2="221.625" y2="3968.04" stroke="black" stroke-width="2"/>
<circle r="7" transform="matrix(0.939691 -0.342025 0.342016 0.939694 236.062 3963.85)" fill="black"/>
<line y1="-1" x2="184" y2="-1" transform="matrix(0.939692 -0.342021 0.342019 0.939693 250.158 3958.72)" stroke="black" stroke-width="2"/>
<circle r="7" transform="matrix(0.939691 -0.342025 0.342015 0.939695 469.157 3890.65)" fill="black"/>
<line x1="482.911" y1="3884.58" x2="655.814" y2="3821.65" stroke="black" stroke-width="2"/>
<circle r="7" transform="matrix(0.939695 -0.342014 0.342026 0.939691 686.25 3817.46)" fill="black"/>
<line x1="716.005" y1="3811.39" x2="888.908" y2="3748.46" stroke="black" stroke-width="2"/>
<circle r="7" transform="matrix(0.939691 -0.342025 0.342015 0.939694 919.346 3744.27)" fill="black"/>
<line x1="933.098" y1="3738.2" x2="1106" y2="3675.27" stroke="black" stroke-width="2"/>
<circle r="7" transform="matrix(0.939691 -0.342025 0.342015 0.939694 1152.44 3671.08)" fill="black"/>
<line x1="1166.19" y1="3665.01" x2="1339.1" y2="3602.08" stroke="black" stroke-width="2"/>
<circle r="7" transform="matrix(0.939691 -0.342024 0.342017 0.939694 1385.53 3597.89)" fill="black"/>
<line x1="1399.29" y1="3591.82" x2="1572.19" y2="3528.88" stroke="black" stroke-width="2"/>
<circle r="7" transform="matrix(0.93969 -0.342026 0.342014 0.939695 1618.63 3524.69)" fill="black"/>
<line y1="-1" x2="184" y2="-1" transform="matrix(0.939693 -0.34202 0.342021 0.939692 1632.72 3519.56)" stroke="black" stroke-width="2"/>
<circle r="7" transform="matrix(0.93969 -0.342026 0.342014 0.939695 1835.72 3451.5)" fill="black"/>
<line x1="1849.48" y1="3445.43" x2="2022.38" y2="3382.5" stroke="black" stroke-width="2"/>
</g>
</svg>
