<svg width="778" height="439" viewBox="0 0 778 439" fill="none" xmlns="http://www.w3.org/2000/svg">
<path opacity="0.15" d="M551 200V183.462C551 156.952 572.49 135.462 599 135.462H1117C1143.51 135.462 1165 113.972 1165 87.462V-649" stroke="white" stroke-width="3" stroke-linecap="round"/>
<path opacity="0.15" d="M549 205.5V255.462C549 281.972 570.49 303.462 597 303.462H1069C1095.51 303.462 1117 281.972 1117 255.462V-481" stroke="white" stroke-width="3" stroke-linecap="round"/>
<path opacity="0.15" d="M519 232.5V359C519 385.51 540.49 407 567 407H1277C1303.51 407 1325 385.51 1325 359V-377" stroke="white" stroke-width="3" stroke-linecap="round"/>
<path opacity="0.15" d="M477 200V93.0294C477 66.5198 498.49 45.0295 525 45.0295H725C751.51 45.0295 773 23.5391 773 -2.97052V-769" stroke="white" stroke-width="3" stroke-linecap="round"/>
<path opacity="0.15" d="M429 217V182.03C429 155.52 407.51 134.029 381 134.029H292C265.49 134.029 244 112.539 244 86.0295V-752" stroke="white" stroke-width="3" stroke-linecap="round"/>
<path opacity="0.05" d="M244 98V63.0295C244 36.5198 265.49 15.0295 292 15.0295H334C360.51 15.0295 382 -6.46085 382 -32.9705V-871" stroke="white" stroke-width="3" stroke-linecap="round"/>
<path opacity="0.05" d="M129 389V354.029C129 327.52 107.51 306.029 81 306.029H50C23.4903 306.029 2 284.539 2 258.029V230" stroke="white" stroke-width="3" stroke-linecap="round"/>
<path opacity="0.04" d="M2 237V202.03C2 175.52 23.4903 154.029 50 154.029H87C113.51 154.029 135 132.539 135 106.029V-732" stroke="white" stroke-width="3" stroke-linecap="round"/>
<path opacity="0.15" d="M244 492V442.947C244 416.437 265.49 394.947 292 394.947H334C360.51 394.947 382 373.456 382 346.947V206" stroke="white" stroke-width="3" stroke-linecap="round"/>
<path opacity="0.15" d="M129 509V271C129 244.49 150.49 223 177 223H370" stroke="white" stroke-width="3" stroke-linecap="round"/>
<path opacity="0.05" d="M477 505V386.457C477 360.223 455.734 338.957 429.5 338.957V338.957C403.266 338.957 382 317.69 382 291.457V255" stroke="white" stroke-width="3" stroke-linecap="round"/>
</svg>
