<svg width="834" height="658" viewBox="0 0 834 658" fill="none" xmlns="http://www.w3.org/2000/svg">
<path opacity="0.15" d="M547 485V468.462C547 441.952 568.49 420.462 595 420.462H1067C1093.51 420.462 1115 398.972 1115 372.462V-364" stroke="white" stroke-width="3" stroke-linecap="round"/>
<path opacity="0.15" d="M499 475.5V540.462C499 566.972 520.49 588.462 547 588.462H1019C1045.51 588.462 1067 566.972 1067 540.462V-196" stroke="white" stroke-width="3" stroke-linecap="round"/>
<path opacity="0.15" d="M469 532.132V644C469 670.51 490.49 692 517 692H1227C1253.51 692 1275 670.51 1275 644V-92" stroke="white" stroke-width="3" stroke-linecap="round"/>
<path opacity="0.15" d="M427 485V378.029C427 351.52 448.49 330.029 475 330.029H675C701.51 330.029 723 308.539 723 282.029V-484" stroke="white" stroke-width="3" stroke-linecap="round"/>
<path opacity="0.15" d="M379 502V467.03C379 440.52 357.51 419.029 331 419.029H242C215.49 419.029 194 397.539 194 371.029V-467" stroke="white" stroke-width="3" stroke-linecap="round"/>
<path opacity="0.05" d="M194 383V348.03C194 321.52 215.49 300.029 242 300.029H284C310.51 300.029 332 278.539 332 252.029V-586" stroke="white" stroke-width="3" stroke-linecap="round"/>
<path opacity="0.05" d="M79 674V639.029C79 612.52 57.5097 591.029 31 591.029H-1.78814e-07C-26.5097 591.029 -48 569.539 -48 543.029V515" stroke="white" stroke-width="3" stroke-linecap="round"/>
<path opacity="0.04" d="M-48 522V487.03C-48 460.52 -26.5097 439.029 -7.31837e-07 439.029H37C63.5097 439.029 85 417.539 85 391.029V-447" stroke="white" stroke-width="3" stroke-linecap="round"/>
<path opacity="0.15" d="M194 777V727.947C194 701.437 215.49 679.947 242 679.947H284C310.51 679.947 332 658.456 332 631.947V491" stroke="white" stroke-width="3" stroke-linecap="round"/>
<path opacity="0.15" d="M79 794V556C79 529.49 100.49 508 127 508H270" stroke="white" stroke-width="3" stroke-linecap="round"/>
<path opacity="0.05" d="M427 824V705.457C427 679.223 405.734 657.957 379.5 657.957V657.957C353.266 657.957 332 636.69 332 610.457V574" stroke="white" stroke-width="3" stroke-linecap="round"/>
</svg>
