<svg width="4397" height="4170" viewBox="0 0 4397 4170" fill="none" xmlns="http://www.w3.org/2000/svg">
<g opacity="0.4">
<line x1="5.73025" y1="1213.28" x2="178.634" y2="1150.35" stroke="#0030AA" stroke-width="2"/>
<circle cx="193.071" cy="1146.16" r="7" transform="rotate(-20 193.071 1146.16)" fill="#0030AA"/>
<line x1="206.824" y1="1140.09" x2="379.727" y2="1077.16" stroke="#0030AA" stroke-width="2"/>
<circle cx="394.165" cy="1072.97" r="7" transform="rotate(-20 394.165 1072.97)" fill="#0030AA"/>
<line x1="407.919" y1="1066.9" x2="580.822" y2="1003.97" stroke="#0030AA" stroke-width="2"/>
<circle cx="595.259" cy="999.776" r="7" transform="rotate(-20 595.259 999.776)" fill="#0030AA"/>
<line x1="609.012" y1="993.706" x2="781.916" y2="930.775" stroke="#0030AA" stroke-width="2"/>
<circle cx="796.354" cy="926.584" r="7" transform="rotate(-20 796.354 926.584)" fill="#0030AA"/>
<line x1="810.107" y1="920.514" x2="983.011" y2="857.582" stroke="#0030AA" stroke-width="2"/>
<circle cx="997.448" cy="853.391" r="7" transform="rotate(-20 997.448 853.391)" fill="#0030AA"/>
<line x1="1011.2" y1="847.322" x2="1184.1" y2="784.39" stroke="#0030AA" stroke-width="2"/>
<circle cx="1198.54" cy="780.199" r="7" transform="rotate(-20 1198.54 780.199)" fill="#0030AA"/>
<line x1="1212.3" y1="774.129" x2="1385.2" y2="711.197" stroke="#0030AA" stroke-width="2"/>
<circle cx="1399.64" cy="707.007" r="7" transform="rotate(-20 1399.64 707.007)" fill="#0030AA"/>
<line x1="1413.39" y1="700.937" x2="1586.29" y2="638.005" stroke="#0030AA" stroke-width="2"/>
<circle cx="1600.73" cy="633.815" r="7" transform="rotate(-20 1600.73 633.815)" fill="#0030AA"/>
<line x1="1614.48" y1="627.744" x2="1787.39" y2="564.813" stroke="#0030AA" stroke-width="2"/>
<circle cx="1801.82" cy="560.622" r="7" transform="rotate(-20 1801.82 560.622)" fill="#0030AA"/>
<line x1="1815.58" y1="554.552" x2="1988.48" y2="491.62" stroke="#0030AA" stroke-width="2"/>
<circle cx="2002.92" cy="487.43" r="7" transform="rotate(-20 2002.92 487.43)" fill="#0030AA"/>
<line x1="2016.67" y1="481.36" x2="2189.58" y2="418.428" stroke="#0030AA" stroke-width="2"/>
<circle cx="2204.01" cy="414.237" r="7" transform="rotate(-20 2204.01 414.237)" fill="#0030AA"/>
<line x1="2217.77" y1="408.168" x2="2390.67" y2="345.236" stroke="#0030AA" stroke-width="2"/>
<circle cx="2405.11" cy="341.045" r="7" transform="rotate(-20 2405.11 341.045)" fill="#0030AA"/>
<line x1="2418.86" y1="334.975" x2="2591.76" y2="272.044" stroke="#0030AA" stroke-width="2"/>
<circle cx="2606.2" cy="267.853" r="7" transform="rotate(-20 2606.2 267.853)" fill="#0030AA"/>
<line x1="2619.95" y1="261.783" x2="2792.86" y2="198.851" stroke="#0030AA" stroke-width="2"/>
<circle cx="2807.3" cy="194.661" r="7" transform="rotate(-20 2807.3 194.661)" fill="#0030AA"/>
<line x1="2821.05" y1="188.591" x2="2993.95" y2="125.659" stroke="#0030AA" stroke-width="2"/>
<circle cx="3008.39" cy="121.468" r="7" transform="rotate(-20 3008.39 121.468)" fill="#0030AA"/>
<line x1="3022.14" y1="115.398" x2="3195.05" y2="52.4665" stroke="#0030AA" stroke-width="2"/>
<circle cx="3209.48" cy="48.2765" r="7" transform="rotate(-20 3209.48 48.2765)" fill="#0030AA"/>
<line x1="149.282" y1="1280.22" x2="322.185" y2="1217.29" stroke="#0030AA" stroke-width="2"/>
<circle cx="336.622" cy="1213.1" r="7" transform="rotate(-20 336.622 1213.1)" fill="#0030AA"/>
<line x1="350.376" y1="1207.03" x2="523.279" y2="1144.1" stroke="#0030AA" stroke-width="2"/>
<circle cx="537.717" cy="1139.91" r="7" transform="rotate(-20 537.717 1139.91)" fill="#0030AA"/>
<line x1="551.47" y1="1133.84" x2="724.374" y2="1070.91" stroke="#0030AA" stroke-width="2"/>
<circle cx="738.811" cy="1066.72" r="7" transform="rotate(-20 738.811 1066.72)" fill="#0030AA"/>
<line x1="752.564" y1="1060.65" x2="925.468" y2="997.714" stroke="#0030AA" stroke-width="2"/>
<circle cx="939.906" cy="993.523" r="7" transform="rotate(-20 939.906 993.523)" fill="#0030AA"/>
<line x1="953.659" y1="987.453" x2="1126.56" y2="924.522" stroke="#0030AA" stroke-width="2"/>
<circle cx="1141" cy="920.331" r="7" transform="rotate(-20 1141 920.331)" fill="#0030AA"/>
<line x1="1154.75" y1="914.261" x2="1327.66" y2="851.329" stroke="#0030AA" stroke-width="2"/>
<circle cx="1342.09" cy="847.138" r="7" transform="rotate(-20 1342.09 847.138)" fill="#0030AA"/>
<line x1="1355.85" y1="841.069" x2="1528.75" y2="778.137" stroke="#0030AA" stroke-width="2"/>
<circle cx="1543.19" cy="773.946" r="7" transform="rotate(-20 1543.19 773.946)" fill="#0030AA"/>
<line x1="1556.94" y1="767.876" x2="1729.84" y2="704.945" stroke="#0030AA" stroke-width="2"/>
<circle cx="1744.28" cy="700.754" r="7" transform="rotate(-20 1744.28 700.754)" fill="#0030AA"/>
<line x1="1758.04" y1="694.684" x2="1930.94" y2="631.752" stroke="#0030AA" stroke-width="2"/>
<circle cx="1945.38" cy="627.562" r="7" transform="rotate(-20 1945.38 627.562)" fill="#0030AA"/>
<line x1="1959.13" y1="621.491" x2="2132.03" y2="558.56" stroke="#0030AA" stroke-width="2"/>
<circle cx="2146.47" cy="554.369" r="7" transform="rotate(-20 2146.47 554.369)" fill="#0030AA"/>
<line x1="2160.22" y1="548.299" x2="2333.13" y2="485.367" stroke="#0030AA" stroke-width="2"/>
<circle cx="2347.56" cy="481.177" r="7" transform="rotate(-20 2347.56 481.177)" fill="#0030AA"/>
<line x1="2361.32" y1="475.107" x2="2534.22" y2="412.175" stroke="#0030AA" stroke-width="2"/>
<circle cx="2548.66" cy="407.984" r="7" transform="rotate(-20 2548.66 407.984)" fill="#0030AA"/>
<line x1="2562.41" y1="401.915" x2="2735.32" y2="338.983" stroke="#0030AA" stroke-width="2"/>
<circle cx="2749.75" cy="334.792" r="7" transform="rotate(-20 2749.75 334.792)" fill="#0030AA"/>
<line x1="2763.51" y1="328.722" x2="2936.41" y2="265.791" stroke="#0030AA" stroke-width="2"/>
<circle cx="2950.85" cy="261.6" r="7" transform="rotate(-20 2950.85 261.6)" fill="#0030AA"/>
<line x1="2964.6" y1="255.53" x2="3137.5" y2="192.598" stroke="#0030AA" stroke-width="2"/>
<circle cx="3151.94" cy="188.408" r="7" transform="rotate(-20 3151.94 188.408)" fill="#0030AA"/>
<line x1="3165.69" y1="182.338" x2="3338.6" y2="119.406" stroke="#0030AA" stroke-width="2"/>
<circle cx="3353.04" cy="115.215" r="7" transform="rotate(-20 3353.04 115.215)" fill="#0030AA"/>
<line x1="82.3426" y1="1423.77" x2="255.246" y2="1360.84" stroke="#0030AA" stroke-width="2"/>
<circle cx="269.683" cy="1356.65" r="7" transform="rotate(-20 269.683 1356.65)" fill="#0030AA"/>
<line x1="283.436" y1="1350.58" x2="456.34" y2="1287.65" stroke="#0030AA" stroke-width="2"/>
<circle cx="470.778" cy="1283.46" r="7" transform="rotate(-20 470.778 1283.46)" fill="#0030AA"/>
<line x1="484.531" y1="1277.39" x2="657.434" y2="1214.46" stroke="#0030AA" stroke-width="2"/>
<circle cx="671.871" cy="1210.27" r="7" transform="rotate(-20 671.871 1210.27)" fill="#0030AA"/>
<line x1="685.625" y1="1204.2" x2="858.528" y2="1141.27" stroke="#0030AA" stroke-width="2"/>
<circle cx="872.966" cy="1137.07" r="7" transform="rotate(-20 872.966 1137.07)" fill="#0030AA"/>
<line x1="886.72" y1="1131.01" x2="1059.62" y2="1068.07" stroke="#0030AA" stroke-width="2"/>
<circle cx="1074.06" cy="1063.88" r="7" transform="rotate(-20 1074.06 1063.88)" fill="#0030AA"/>
<line x1="1087.81" y1="1057.81" x2="1260.72" y2="994.881" stroke="#0030AA" stroke-width="2"/>
<circle cx="1275.15" cy="990.69" r="7" transform="rotate(-20 1275.15 990.69)" fill="#0030AA"/>
<line x1="1288.91" y1="984.62" x2="1461.81" y2="921.689" stroke="#0030AA" stroke-width="2"/>
<circle cx="1476.25" cy="917.498" r="7" transform="rotate(-20 1476.25 917.498)" fill="#0030AA"/>
<line x1="1490" y1="911.428" x2="1662.91" y2="848.496" stroke="#0030AA" stroke-width="2"/>
<circle cx="1677.34" cy="844.306" r="7" transform="rotate(-20 1677.34 844.306)" fill="#0030AA"/>
<line x1="1691.1" y1="838.236" x2="1864" y2="775.304" stroke="#0030AA" stroke-width="2"/>
<circle cx="1878.44" cy="771.113" r="7" transform="rotate(-20 1878.44 771.113)" fill="#0030AA"/>
<line x1="1892.19" y1="765.043" x2="2065.09" y2="702.112" stroke="#0030AA" stroke-width="2"/>
<circle cx="2079.53" cy="697.921" r="7" transform="rotate(-20 2079.53 697.921)" fill="#0030AA"/>
<line x1="2093.28" y1="691.851" x2="2266.19" y2="628.92" stroke="#0030AA" stroke-width="2"/>
<circle cx="2280.63" cy="624.729" r="7" transform="rotate(-20 2280.63 624.729)" fill="#0030AA"/>
<line x1="2294.38" y1="618.659" x2="2467.28" y2="555.727" stroke="#0030AA" stroke-width="2"/>
<circle cx="2481.72" cy="551.536" r="7" transform="rotate(-20 2481.72 551.536)" fill="#0030AA"/>
<line x1="2495.47" y1="545.467" x2="2668.38" y2="482.535" stroke="#0030AA" stroke-width="2"/>
<circle cx="2682.81" cy="478.344" r="7" transform="rotate(-20 2682.81 478.344)" fill="#0030AA"/>
<line x1="2696.57" y1="472.274" x2="2869.47" y2="409.342" stroke="#0030AA" stroke-width="2"/>
<circle cx="2883.91" cy="405.152" r="7" transform="rotate(-20 2883.91 405.152)" fill="#0030AA"/>
<line x1="2897.66" y1="399.082" x2="3070.56" y2="336.15" stroke="#0030AA" stroke-width="2"/>
<circle cx="3085" cy="331.96" r="7" transform="rotate(-20 3085 331.96)" fill="#0030AA"/>
<line x1="3098.75" y1="325.889" x2="3271.66" y2="262.958" stroke="#0030AA" stroke-width="2"/>
<circle cx="3286.1" cy="258.767" r="7" transform="rotate(-20 3286.1 258.767)" fill="#0030AA"/>
<line x1="225.894" y1="1490.71" x2="398.798" y2="1427.78" stroke="#0030AA" stroke-width="2"/>
<circle cx="413.235" cy="1423.59" r="7" transform="rotate(-20 413.235 1423.59)" fill="#0030AA"/>
<line x1="426.988" y1="1417.52" x2="599.891" y2="1354.59" stroke="#0030AA" stroke-width="2"/>
<circle cx="614.329" cy="1350.4" r="7" transform="rotate(-20 614.329 1350.4)" fill="#0030AA"/>
<line x1="628.083" y1="1344.33" x2="800.986" y2="1281.4" stroke="#0030AA" stroke-width="2"/>
<circle cx="815.423" cy="1277.21" r="7" transform="rotate(-20 815.423 1277.21)" fill="#0030AA"/>
<line x1="829.177" y1="1271.14" x2="1002.08" y2="1208.2" stroke="#0030AA" stroke-width="2"/>
<circle cx="1016.52" cy="1204.01" r="7" transform="rotate(-20 1016.52 1204.01)" fill="#0030AA"/>
<line x1="1030.27" y1="1197.94" x2="1203.17" y2="1135.01" stroke="#0030AA" stroke-width="2"/>
<circle cx="1217.61" cy="1130.82" r="7" transform="rotate(-20 1217.61 1130.82)" fill="#0030AA"/>
<line x1="1231.37" y1="1124.75" x2="1404.27" y2="1061.82" stroke="#0030AA" stroke-width="2"/>
<circle cx="1418.71" cy="1057.63" r="7" transform="rotate(-20 1418.71 1057.63)" fill="#0030AA"/>
<line x1="1432.46" y1="1051.56" x2="1605.36" y2="988.628" stroke="#0030AA" stroke-width="2"/>
<circle cx="1619.8" cy="984.437" r="7" transform="rotate(-20 1619.8 984.437)" fill="#0030AA"/>
<line x1="1633.55" y1="978.367" x2="1806.46" y2="915.435" stroke="#0030AA" stroke-width="2"/>
<circle cx="1820.89" cy="911.245" r="7" transform="rotate(-20 1820.89 911.245)" fill="#0030AA"/>
<line x1="1834.65" y1="905.175" x2="2007.55" y2="842.243" stroke="#0030AA" stroke-width="2"/>
<circle cx="2021.99" cy="838.052" r="7" transform="rotate(-20 2021.99 838.052)" fill="#0030AA"/>
<line x1="2035.74" y1="831.982" x2="2208.65" y2="769.05" stroke="#0030AA" stroke-width="2"/>
<circle cx="2223.08" cy="764.86" r="7" transform="rotate(-20 2223.08 764.86)" fill="#0030AA"/>
<line x1="2236.84" y1="758.79" x2="2409.74" y2="695.859" stroke="#0030AA" stroke-width="2"/>
<circle cx="2424.18" cy="691.668" r="7" transform="rotate(-20 2424.18 691.668)" fill="#0030AA"/>
<line x1="2437.93" y1="685.598" x2="2610.83" y2="622.666" stroke="#0030AA" stroke-width="2"/>
<circle cx="2625.27" cy="618.475" r="7" transform="rotate(-20 2625.27 618.475)" fill="#0030AA"/>
<line x1="2639.03" y1="612.406" x2="2811.93" y2="549.474" stroke="#0030AA" stroke-width="2"/>
<circle cx="2826.36" cy="545.283" r="7" transform="rotate(-20 2826.36 545.283)" fill="#0030AA"/>
<line x1="2840.12" y1="539.213" x2="3013.02" y2="476.281" stroke="#0030AA" stroke-width="2"/>
<circle cx="3027.46" cy="472.091" r="7" transform="rotate(-20 3027.46 472.091)" fill="#0030AA"/>
<line x1="3041.21" y1="466.021" x2="3214.12" y2="403.089" stroke="#0030AA" stroke-width="2"/>
<circle cx="3228.55" cy="398.899" r="7" transform="rotate(-20 3228.55 398.899)" fill="#0030AA"/>
<line x1="3242.31" y1="392.828" x2="3415.21" y2="329.897" stroke="#0030AA" stroke-width="2"/>
<circle cx="3429.65" cy="325.706" r="7" transform="rotate(-20 3429.65 325.706)" fill="#0030AA"/>
<line x1="158.955" y1="1634.27" x2="331.858" y2="1571.33" stroke="#0030AA" stroke-width="2"/>
<circle cx="346.295" cy="1567.14" r="7" transform="rotate(-20 346.295 1567.14)" fill="#0030AA"/>
<line x1="360.049" y1="1561.07" x2="532.952" y2="1498.14" stroke="#0030AA" stroke-width="2"/>
<circle cx="547.39" cy="1493.95" r="7" transform="rotate(-20 547.39 1493.95)" fill="#0030AA"/>
<line x1="561.143" y1="1487.88" x2="734.047" y2="1424.95" stroke="#0030AA" stroke-width="2"/>
<circle cx="748.484" cy="1420.76" r="7" transform="rotate(-20 748.484 1420.76)" fill="#0030AA"/>
<line x1="762.237" y1="1414.69" x2="935.141" y2="1351.76" stroke="#0030AA" stroke-width="2"/>
<circle cx="949.578" cy="1347.57" r="7" transform="rotate(-20 949.578 1347.57)" fill="#0030AA"/>
<line x1="963.332" y1="1341.5" x2="1136.24" y2="1278.56" stroke="#0030AA" stroke-width="2"/>
<circle cx="1150.67" cy="1274.37" r="7" transform="rotate(-20 1150.67 1274.37)" fill="#0030AA"/>
<line x1="1164.43" y1="1268.3" x2="1337.33" y2="1205.37" stroke="#0030AA" stroke-width="2"/>
<circle cx="1351.77" cy="1201.18" r="7" transform="rotate(-20 1351.77 1201.18)" fill="#0030AA"/>
<line x1="1365.52" y1="1195.11" x2="1538.42" y2="1132.18" stroke="#0030AA" stroke-width="2"/>
<circle cx="1552.86" cy="1127.99" r="7" transform="rotate(-20 1552.86 1127.99)" fill="#0030AA"/>
<line x1="1566.61" y1="1121.92" x2="1739.52" y2="1058.99" stroke="#0030AA" stroke-width="2"/>
<circle cx="1753.95" cy="1054.8" r="7" transform="rotate(-20 1753.95 1054.8)" fill="#0030AA"/>
<line x1="1767.71" y1="1048.73" x2="1940.61" y2="985.795" stroke="#0030AA" stroke-width="2"/>
<circle cx="1955.05" cy="981.605" r="7" transform="rotate(-20 1955.05 981.605)" fill="#0030AA"/>
<line x1="1968.8" y1="975.534" x2="2141.71" y2="912.603" stroke="#0030AA" stroke-width="2"/>
<circle cx="2156.14" cy="908.412" r="7" transform="rotate(-20 2156.14 908.412)" fill="#0030AA"/>
<line x1="2169.9" y1="902.343" x2="2342.8" y2="839.411" stroke="#0030AA" stroke-width="2"/>
<circle cx="2357.24" cy="835.22" r="7" transform="rotate(-20 2357.24 835.22)" fill="#0030AA"/>
<line x1="2370.99" y1="829.15" x2="2543.89" y2="766.218" stroke="#0030AA" stroke-width="2"/>
<circle cx="2558.33" cy="762.027" r="7" transform="rotate(-20 2558.33 762.027)" fill="#0030AA"/>
<line x1="2572.09" y1="755.958" x2="2744.99" y2="693.026" stroke="#0030AA" stroke-width="2"/>
<circle cx="2759.43" cy="688.836" r="7" transform="rotate(-20 2759.43 688.836)" fill="#0030AA"/>
<line x1="2773.18" y1="682.765" x2="2946.08" y2="619.834" stroke="#0030AA" stroke-width="2"/>
<circle cx="2960.52" cy="615.643" r="7" transform="rotate(-20 2960.52 615.643)" fill="#0030AA"/>
<line x1="2974.27" y1="609.573" x2="3147.18" y2="546.641" stroke="#0030AA" stroke-width="2"/>
<circle cx="3161.61" cy="542.451" r="7" transform="rotate(-20 3161.61 542.451)" fill="#0030AA"/>
<line x1="3175.37" y1="536.381" x2="3348.27" y2="473.449" stroke="#0030AA" stroke-width="2"/>
<circle cx="3362.71" cy="469.258" r="7" transform="rotate(-20 3362.71 469.258)" fill="#0030AA"/>
<line x1="302.507" y1="1701.2" x2="475.41" y2="1638.27" stroke="#0030AA" stroke-width="2"/>
<circle cx="489.847" cy="1634.08" r="7" transform="rotate(-20 489.847 1634.08)" fill="#0030AA"/>
<line x1="503.6" y1="1628.01" x2="676.504" y2="1565.08" stroke="#0030AA" stroke-width="2"/>
<circle cx="690.942" cy="1560.89" r="7" transform="rotate(-20 690.942 1560.89)" fill="#0030AA"/>
<line x1="704.695" y1="1554.82" x2="877.599" y2="1491.89" stroke="#0030AA" stroke-width="2"/>
<circle cx="892.035" cy="1487.7" r="7" transform="rotate(-20 892.035 1487.7)" fill="#0030AA"/>
<line x1="905.789" y1="1481.63" x2="1078.69" y2="1418.7" stroke="#0030AA" stroke-width="2"/>
<circle cx="1093.13" cy="1414.51" r="7" transform="rotate(-20 1093.13 1414.51)" fill="#0030AA"/>
<line x1="1106.88" y1="1408.44" x2="1279.79" y2="1345.5" stroke="#0030AA" stroke-width="2"/>
<circle cx="1294.22" cy="1341.31" r="7" transform="rotate(-20 1294.22 1341.31)" fill="#0030AA"/>
<line x1="1307.98" y1="1335.24" x2="1480.88" y2="1272.31" stroke="#0030AA" stroke-width="2"/>
<circle cx="1495.32" cy="1268.12" r="7" transform="rotate(-20 1495.32 1268.12)" fill="#0030AA"/>
<line x1="1509.07" y1="1262.05" x2="1681.98" y2="1199.12" stroke="#0030AA" stroke-width="2"/>
<circle cx="1696.41" cy="1194.93" r="7" transform="rotate(-20 1696.41 1194.93)" fill="#0030AA"/>
<line x1="1710.16" y1="1188.86" x2="1883.07" y2="1125.93" stroke="#0030AA" stroke-width="2"/>
<circle cx="1897.51" cy="1121.74" r="7" transform="rotate(-20 1897.51 1121.74)" fill="#0030AA"/>
<line x1="1911.26" y1="1115.67" x2="2084.16" y2="1052.73" stroke="#0030AA" stroke-width="2"/>
<circle cx="2098.6" cy="1048.54" r="7" transform="rotate(-20 2098.6 1048.54)" fill="#0030AA"/>
<line x1="2112.35" y1="1042.47" x2="2285.26" y2="979.542" stroke="#0030AA" stroke-width="2"/>
<circle cx="2299.7" cy="975.351" r="7" transform="rotate(-20 2299.7 975.351)" fill="#0030AA"/>
<line x1="2313.45" y1="969.281" x2="2486.35" y2="906.35" stroke="#0030AA" stroke-width="2"/>
<circle cx="2500.79" cy="902.159" r="7" transform="rotate(-20 2500.79 902.159)" fill="#0030AA"/>
<line x1="2514.54" y1="896.089" x2="2687.45" y2="833.157" stroke="#0030AA" stroke-width="2"/>
<circle cx="2701.88" cy="828.966" r="7" transform="rotate(-20 2701.88 828.966)" fill="#0030AA"/>
<line x1="2715.64" y1="822.897" x2="2888.54" y2="759.965" stroke="#0030AA" stroke-width="2"/>
<circle cx="2902.98" cy="755.775" r="7" transform="rotate(-20 2902.98 755.775)" fill="#0030AA"/>
<line x1="2916.73" y1="749.704" x2="3089.63" y2="686.773" stroke="#0030AA" stroke-width="2"/>
<circle cx="3104.07" cy="682.582" r="7" transform="rotate(-20 3104.07 682.582)" fill="#0030AA"/>
<line x1="3117.82" y1="676.512" x2="3290.73" y2="613.58" stroke="#0030AA" stroke-width="2"/>
<circle cx="3305.17" cy="609.39" r="7" transform="rotate(-20 3305.17 609.39)" fill="#0030AA"/>
<line x1="3318.92" y1="603.32" x2="3491.82" y2="540.388" stroke="#0030AA" stroke-width="2"/>
<circle cx="3506.26" cy="536.197" r="7" transform="rotate(-20 3506.26 536.197)" fill="#0030AA"/>
<line x1="235.567" y1="1844.76" x2="408.471" y2="1781.82" stroke="#0030AA" stroke-width="2"/>
<circle cx="422.908" cy="1777.63" r="7" transform="rotate(-20 422.908 1777.63)" fill="#0030AA"/>
<line x1="436.661" y1="1771.56" x2="609.564" y2="1708.63" stroke="#0030AA" stroke-width="2"/>
<circle cx="624.002" cy="1704.44" r="7" transform="rotate(-20 624.002 1704.44)" fill="#0030AA"/>
<line x1="637.756" y1="1698.37" x2="810.659" y2="1635.44" stroke="#0030AA" stroke-width="2"/>
<circle cx="825.096" cy="1631.25" r="7" transform="rotate(-20 825.096 1631.25)" fill="#0030AA"/>
<line x1="838.849" y1="1625.18" x2="1011.75" y2="1562.25" stroke="#0030AA" stroke-width="2"/>
<circle cx="1026.19" cy="1558.06" r="7" transform="rotate(-20 1026.19 1558.06)" fill="#0030AA"/>
<line x1="1039.94" y1="1551.99" x2="1212.85" y2="1489.06" stroke="#0030AA" stroke-width="2"/>
<circle cx="1227.28" cy="1484.86" r="7" transform="rotate(-20 1227.28 1484.86)" fill="#0030AA"/>
<line x1="1241.04" y1="1478.79" x2="1413.94" y2="1415.86" stroke="#0030AA" stroke-width="2"/>
<circle cx="1428.38" cy="1411.67" r="7" transform="rotate(-20 1428.38 1411.67)" fill="#0030AA"/>
<line x1="1442.13" y1="1405.6" x2="1615.04" y2="1342.67" stroke="#0030AA" stroke-width="2"/>
<circle cx="1629.47" cy="1338.48" r="7" transform="rotate(-20 1629.47 1338.48)" fill="#0030AA"/>
<line x1="1643.23" y1="1332.41" x2="1816.13" y2="1269.48" stroke="#0030AA" stroke-width="2"/>
<circle cx="1830.57" cy="1265.29" r="7" transform="rotate(-20 1830.57 1265.29)" fill="#0030AA"/>
<line x1="1844.32" y1="1259.22" x2="2017.22" y2="1196.29" stroke="#0030AA" stroke-width="2"/>
<circle cx="2031.66" cy="1192.1" r="7" transform="rotate(-20 2031.66 1192.1)" fill="#0030AA"/>
<line x1="2045.41" y1="1186.03" x2="2218.32" y2="1123.09" stroke="#0030AA" stroke-width="2"/>
<circle cx="2232.76" cy="1118.9" r="7" transform="rotate(-20 2232.76 1118.9)" fill="#0030AA"/>
<line x1="2246.51" y1="1112.83" x2="2419.41" y2="1049.9" stroke="#0030AA" stroke-width="2"/>
<circle cx="2433.85" cy="1045.71" r="7" transform="rotate(-20 2433.85 1045.71)" fill="#0030AA"/>
<line x1="2447.6" y1="1039.64" x2="2620.51" y2="976.709" stroke="#0030AA" stroke-width="2"/>
<circle cx="2634.94" cy="972.518" r="7" transform="rotate(-20 2634.94 972.518)" fill="#0030AA"/>
<line x1="2648.7" y1="966.448" x2="2821.6" y2="903.517" stroke="#0030AA" stroke-width="2"/>
<circle cx="2836.04" cy="899.326" r="7" transform="rotate(-20 2836.04 899.326)" fill="#0030AA"/>
<line x1="2849.79" y1="893.256" x2="3022.7" y2="830.324" stroke="#0030AA" stroke-width="2"/>
<circle cx="3037.13" cy="826.134" r="7" transform="rotate(-20 3037.13 826.134)" fill="#0030AA"/>
<line x1="3050.89" y1="820.064" x2="3223.79" y2="757.132" stroke="#0030AA" stroke-width="2"/>
<circle cx="3238.23" cy="752.942" r="7" transform="rotate(-20 3238.23 752.942)" fill="#0030AA"/>
<line x1="3251.98" y1="746.871" x2="3424.88" y2="683.94" stroke="#0030AA" stroke-width="2"/>
<circle cx="3439.32" cy="679.749" r="7" transform="rotate(-20 3439.32 679.749)" fill="#0030AA"/>
<line x1="379.119" y1="1911.7" x2="552.022" y2="1848.76" stroke="#0030AA" stroke-width="2"/>
<circle cx="566.459" cy="1844.57" r="7" transform="rotate(-20 566.459 1844.57)" fill="#0030AA"/>
<line x1="580.213" y1="1838.5" x2="753.116" y2="1775.57" stroke="#0030AA" stroke-width="2"/>
<circle cx="767.554" cy="1771.38" r="7" transform="rotate(-20 767.554 1771.38)" fill="#0030AA"/>
<line x1="781.307" y1="1765.31" x2="954.211" y2="1702.38" stroke="#0030AA" stroke-width="2"/>
<circle cx="968.648" cy="1698.19" r="7" transform="rotate(-20 968.648 1698.19)" fill="#0030AA"/>
<line x1="982.401" y1="1692.12" x2="1155.3" y2="1629.19" stroke="#0030AA" stroke-width="2"/>
<circle cx="1169.74" cy="1625" r="7" transform="rotate(-20 1169.74 1625)" fill="#0030AA"/>
<line x1="1183.5" y1="1618.93" x2="1356.4" y2="1555.99" stroke="#0030AA" stroke-width="2"/>
<circle cx="1370.84" cy="1551.8" r="7" transform="rotate(-20 1370.84 1551.8)" fill="#0030AA"/>
<line x1="1384.59" y1="1545.73" x2="1557.49" y2="1482.8" stroke="#0030AA" stroke-width="2"/>
<circle cx="1571.93" cy="1478.61" r="7" transform="rotate(-20 1571.93 1478.61)" fill="#0030AA"/>
<line x1="1585.68" y1="1472.54" x2="1758.59" y2="1409.61" stroke="#0030AA" stroke-width="2"/>
<circle cx="1773.02" cy="1405.42" r="7" transform="rotate(-20 1773.02 1405.42)" fill="#0030AA"/>
<line x1="1786.78" y1="1399.35" x2="1959.68" y2="1336.42" stroke="#0030AA" stroke-width="2"/>
<circle cx="1974.12" cy="1332.23" r="7" transform="rotate(-20 1974.12 1332.23)" fill="#0030AA"/>
<line x1="1987.87" y1="1326.16" x2="2160.78" y2="1263.23" stroke="#0030AA" stroke-width="2"/>
<circle cx="2175.21" cy="1259.03" r="7" transform="rotate(-20 2175.21 1259.03)" fill="#0030AA"/>
<line x1="2188.97" y1="1252.96" x2="2361.87" y2="1190.03" stroke="#0030AA" stroke-width="2"/>
<circle cx="2376.31" cy="1185.84" r="7" transform="rotate(-20 2376.31 1185.84)" fill="#0030AA"/>
<line x1="2390.06" y1="1179.77" x2="2562.96" y2="1116.84" stroke="#0030AA" stroke-width="2"/>
<circle cx="2577.4" cy="1112.65" r="7" transform="rotate(-20 2577.4 1112.65)" fill="#0030AA"/>
<line x1="2591.15" y1="1106.58" x2="2764.06" y2="1043.65" stroke="#0030AA" stroke-width="2"/>
<circle cx="2778.5" cy="1039.46" r="7" transform="rotate(-20 2778.5 1039.46)" fill="#0030AA"/>
<line x1="2792.25" y1="1033.39" x2="2965.15" y2="970.456" stroke="#0030AA" stroke-width="2"/>
<circle cx="2979.59" cy="966.265" r="7" transform="rotate(-20 2979.59 966.265)" fill="#0030AA"/>
<line x1="2993.34" y1="960.196" x2="3166.25" y2="897.264" stroke="#0030AA" stroke-width="2"/>
<circle cx="3180.68" cy="893.073" r="7" transform="rotate(-20 3180.68 893.073)" fill="#0030AA"/>
<line x1="3194.44" y1="887.003" x2="3367.34" y2="824.071" stroke="#0030AA" stroke-width="2"/>
<circle cx="3381.78" cy="819.881" r="7" transform="rotate(-20 3381.78 819.881)" fill="#0030AA"/>
<line x1="3395.53" y1="813.811" x2="3568.43" y2="750.879" stroke="#0030AA" stroke-width="2"/>
<circle cx="3582.87" cy="746.689" r="7" transform="rotate(-20 3582.87 746.689)" fill="#0030AA"/>
<line x1="312.18" y1="2055.25" x2="485.084" y2="1992.32" stroke="#0030AA" stroke-width="2"/>
<circle cx="499.521" cy="1988.13" r="7" transform="rotate(-20 499.521 1988.13)" fill="#0030AA"/>
<line x1="513.274" y1="1982.05" x2="686.178" y2="1919.12" stroke="#0030AA" stroke-width="2"/>
<circle cx="700.616" cy="1914.93" r="7" transform="rotate(-20 700.616 1914.93)" fill="#0030AA"/>
<line x1="714.369" y1="1908.86" x2="887.272" y2="1845.93" stroke="#0030AA" stroke-width="2"/>
<circle cx="901.709" cy="1841.74" r="7" transform="rotate(-20 901.709 1841.74)" fill="#0030AA"/>
<line x1="915.463" y1="1835.67" x2="1088.37" y2="1772.74" stroke="#0030AA" stroke-width="2"/>
<circle cx="1102.8" cy="1768.55" r="7" transform="rotate(-20 1102.8 1768.55)" fill="#0030AA"/>
<line x1="1116.56" y1="1762.48" x2="1289.46" y2="1699.55" stroke="#0030AA" stroke-width="2"/>
<circle cx="1303.9" cy="1695.36" r="7" transform="rotate(-20 1303.9 1695.36)" fill="#0030AA"/>
<line x1="1317.65" y1="1689.29" x2="1490.55" y2="1626.35" stroke="#0030AA" stroke-width="2"/>
<circle cx="1504.99" cy="1622.16" r="7" transform="rotate(-20 1504.99 1622.16)" fill="#0030AA"/>
<line x1="1518.75" y1="1616.09" x2="1691.65" y2="1553.16" stroke="#0030AA" stroke-width="2"/>
<circle cx="1706.09" cy="1548.97" r="7" transform="rotate(-20 1706.09 1548.97)" fill="#0030AA"/>
<line x1="1719.84" y1="1542.9" x2="1892.74" y2="1479.97" stroke="#0030AA" stroke-width="2"/>
<circle cx="1907.18" cy="1475.78" r="7" transform="rotate(-20 1907.18 1475.78)" fill="#0030AA"/>
<line x1="1920.93" y1="1469.71" x2="2093.84" y2="1406.78" stroke="#0030AA" stroke-width="2"/>
<circle cx="2108.27" cy="1402.59" r="7" transform="rotate(-20 2108.27 1402.59)" fill="#0030AA"/>
<line x1="2122.03" y1="1396.52" x2="2294.93" y2="1333.58" stroke="#0030AA" stroke-width="2"/>
<circle cx="2309.37" cy="1329.39" r="7" transform="rotate(-20 2309.37 1329.39)" fill="#0030AA"/>
<line x1="2323.12" y1="1323.32" x2="2496.03" y2="1260.39" stroke="#0030AA" stroke-width="2"/>
<circle cx="2510.46" cy="1256.2" r="7" transform="rotate(-20 2510.46 1256.2)" fill="#0030AA"/>
<line x1="2524.22" y1="1250.13" x2="2697.12" y2="1187.2" stroke="#0030AA" stroke-width="2"/>
<circle cx="2711.56" cy="1183.01" r="7" transform="rotate(-20 2711.56 1183.01)" fill="#0030AA"/>
<line x1="2725.31" y1="1176.94" x2="2898.21" y2="1114.01" stroke="#0030AA" stroke-width="2"/>
<circle cx="2912.65" cy="1109.82" r="7" transform="rotate(-20 2912.65 1109.82)" fill="#0030AA"/>
<line x1="2926.41" y1="1103.75" x2="3099.31" y2="1040.82" stroke="#0030AA" stroke-width="2"/>
<circle cx="3113.75" cy="1036.63" r="7" transform="rotate(-20 3113.75 1036.63)" fill="#0030AA"/>
<line x1="3127.5" y1="1030.55" x2="3300.4" y2="967.623" stroke="#0030AA" stroke-width="2"/>
<circle cx="3314.84" cy="963.433" r="7" transform="rotate(-20 3314.84 963.433)" fill="#0030AA"/>
<line x1="3328.59" y1="957.363" x2="3501.5" y2="894.431" stroke="#0030AA" stroke-width="2"/>
<circle cx="3515.93" cy="890.24" r="7" transform="rotate(-20 3515.93 890.24)" fill="#0030AA"/>
<line x1="455.732" y1="2122.19" x2="628.636" y2="2059.26" stroke="#0030AA" stroke-width="2"/>
<circle cx="643.073" cy="2055.06" r="7" transform="rotate(-20 643.073 2055.06)" fill="#0030AA"/>
<line x1="656.826" y1="2048.99" x2="829.729" y2="1986.06" stroke="#0030AA" stroke-width="2"/>
<circle cx="844.167" cy="1981.87" r="7" transform="rotate(-20 844.167 1981.87)" fill="#0030AA"/>
<line x1="857.921" y1="1975.8" x2="1030.82" y2="1912.87" stroke="#0030AA" stroke-width="2"/>
<circle cx="1045.26" cy="1908.68" r="7" transform="rotate(-20 1045.26 1908.68)" fill="#0030AA"/>
<line x1="1059.01" y1="1902.61" x2="1231.92" y2="1839.68" stroke="#0030AA" stroke-width="2"/>
<circle cx="1246.36" cy="1835.49" r="7" transform="rotate(-20 1246.36 1835.49)" fill="#0030AA"/>
<line x1="1260.11" y1="1829.42" x2="1433.01" y2="1766.49" stroke="#0030AA" stroke-width="2"/>
<circle cx="1447.45" cy="1762.3" r="7" transform="rotate(-20 1447.45 1762.3)" fill="#0030AA"/>
<line x1="1461.2" y1="1756.23" x2="1634.11" y2="1693.29" stroke="#0030AA" stroke-width="2"/>
<circle cx="1648.54" cy="1689.1" r="7" transform="rotate(-20 1648.54 1689.1)" fill="#0030AA"/>
<line x1="1662.3" y1="1683.03" x2="1835.2" y2="1620.1" stroke="#0030AA" stroke-width="2"/>
<circle cx="1849.64" cy="1615.91" r="7" transform="rotate(-20 1849.64 1615.91)" fill="#0030AA"/>
<line x1="1863.39" y1="1609.84" x2="2036.29" y2="1546.91" stroke="#0030AA" stroke-width="2"/>
<circle cx="2050.73" cy="1542.72" r="7" transform="rotate(-20 2050.73 1542.72)" fill="#0030AA"/>
<line x1="2064.49" y1="1536.65" x2="2237.39" y2="1473.72" stroke="#0030AA" stroke-width="2"/>
<circle cx="2251.83" cy="1469.53" r="7" transform="rotate(-20 2251.83 1469.53)" fill="#0030AA"/>
<line x1="2265.58" y1="1463.46" x2="2438.48" y2="1400.52" stroke="#0030AA" stroke-width="2"/>
<circle cx="2452.92" cy="1396.33" r="7" transform="rotate(-20 2452.92 1396.33)" fill="#0030AA"/>
<line x1="2466.67" y1="1390.26" x2="2639.58" y2="1327.33" stroke="#0030AA" stroke-width="2"/>
<circle cx="2654.01" cy="1323.14" r="7" transform="rotate(-20 2654.01 1323.14)" fill="#0030AA"/>
<line x1="2667.77" y1="1317.07" x2="2840.67" y2="1254.14" stroke="#0030AA" stroke-width="2"/>
<circle cx="2855.11" cy="1249.95" r="7" transform="rotate(-20 2855.11 1249.95)" fill="#0030AA"/>
<line x1="2868.86" y1="1243.88" x2="3041.77" y2="1180.95" stroke="#0030AA" stroke-width="2"/>
<circle cx="3056.2" cy="1176.76" r="7" transform="rotate(-20 3056.2 1176.76)" fill="#0030AA"/>
<line x1="3069.96" y1="1170.69" x2="3242.86" y2="1107.76" stroke="#0030AA" stroke-width="2"/>
<circle cx="3257.3" cy="1103.56" r="7" transform="rotate(-20 3257.3 1103.56)" fill="#0030AA"/>
<line x1="3271.05" y1="1097.49" x2="3443.95" y2="1034.56" stroke="#0030AA" stroke-width="2"/>
<circle cx="3458.39" cy="1030.37" r="7" transform="rotate(-20 3458.39 1030.37)" fill="#0030AA"/>
<line x1="3472.14" y1="1024.3" x2="3645.05" y2="961.37" stroke="#0030AA" stroke-width="2"/>
<circle cx="3659.49" cy="957.18" r="7" transform="rotate(-20 3659.49 957.18)" fill="#0030AA"/>
<line x1="388.793" y1="2265.74" x2="561.696" y2="2202.81" stroke="#0030AA" stroke-width="2"/>
<circle cx="576.133" cy="2198.62" r="7" transform="rotate(-20 576.133 2198.62)" fill="#0030AA"/>
<line x1="589.886" y1="2192.55" x2="762.79" y2="2129.61" stroke="#0030AA" stroke-width="2"/>
<circle cx="777.228" cy="2125.42" r="7" transform="rotate(-20 777.228 2125.42)" fill="#0030AA"/>
<line x1="790.981" y1="2119.35" x2="963.885" y2="2056.42" stroke="#0030AA" stroke-width="2"/>
<circle cx="978.322" cy="2052.23" r="7" transform="rotate(-20 978.322 2052.23)" fill="#0030AA"/>
<line x1="992.075" y1="2046.16" x2="1164.98" y2="1983.23" stroke="#0030AA" stroke-width="2"/>
<circle cx="1179.42" cy="1979.04" r="7" transform="rotate(-20 1179.42 1979.04)" fill="#0030AA"/>
<line x1="1193.17" y1="1972.97" x2="1366.07" y2="1910.04" stroke="#0030AA" stroke-width="2"/>
<circle cx="1380.51" cy="1905.85" r="7" transform="rotate(-20 1380.51 1905.85)" fill="#0030AA"/>
<line x1="1394.26" y1="1899.78" x2="1567.17" y2="1836.85" stroke="#0030AA" stroke-width="2"/>
<circle cx="1581.6" cy="1832.65" r="7" transform="rotate(-20 1581.6 1832.65)" fill="#0030AA"/>
<line x1="1595.36" y1="1826.58" x2="1768.26" y2="1763.65" stroke="#0030AA" stroke-width="2"/>
<circle cx="1782.7" cy="1759.46" r="7" transform="rotate(-20 1782.7 1759.46)" fill="#0030AA"/>
<line x1="1796.45" y1="1753.39" x2="1969.35" y2="1690.46" stroke="#0030AA" stroke-width="2"/>
<circle cx="1983.79" cy="1686.27" r="7" transform="rotate(-20 1983.79 1686.27)" fill="#0030AA"/>
<line x1="1997.55" y1="1680.2" x2="2170.45" y2="1617.27" stroke="#0030AA" stroke-width="2"/>
<circle cx="2184.89" cy="1613.08" r="7" transform="rotate(-20 2184.89 1613.08)" fill="#0030AA"/>
<line x1="2198.64" y1="1607.01" x2="2371.54" y2="1544.08" stroke="#0030AA" stroke-width="2"/>
<circle cx="2385.98" cy="1539.89" r="7" transform="rotate(-20 2385.98 1539.89)" fill="#0030AA"/>
<line x1="2399.73" y1="1533.82" x2="2572.64" y2="1470.88" stroke="#0030AA" stroke-width="2"/>
<circle cx="2587.08" cy="1466.69" r="7" transform="rotate(-20 2587.08 1466.69)" fill="#0030AA"/>
<line x1="2600.83" y1="1460.62" x2="2773.73" y2="1397.69" stroke="#0030AA" stroke-width="2"/>
<circle cx="2788.17" cy="1393.5" r="7" transform="rotate(-20 2788.17 1393.5)" fill="#0030AA"/>
<line x1="2801.92" y1="1387.43" x2="2974.83" y2="1324.5" stroke="#0030AA" stroke-width="2"/>
<circle cx="2989.26" cy="1320.31" r="7" transform="rotate(-20 2989.26 1320.31)" fill="#0030AA"/>
<line x1="3003.02" y1="1314.24" x2="3175.92" y2="1251.31" stroke="#0030AA" stroke-width="2"/>
<circle cx="3190.36" cy="1247.12" r="7" transform="rotate(-20 3190.36 1247.12)" fill="#0030AA"/>
<line x1="3204.11" y1="1241.05" x2="3377.01" y2="1178.11" stroke="#0030AA" stroke-width="2"/>
<circle cx="3391.45" cy="1173.92" r="7" transform="rotate(-20 3391.45 1173.92)" fill="#0030AA"/>
<line x1="3405.2" y1="1167.85" x2="3578.11" y2="1104.92" stroke="#0030AA" stroke-width="2"/>
<circle cx="3592.55" cy="1100.73" r="7" transform="rotate(-20 3592.55 1100.73)" fill="#0030AA"/>
<line x1="532.345" y1="2332.68" x2="705.248" y2="2269.75" stroke="#0030AA" stroke-width="2"/>
<circle cx="719.685" cy="2265.56" r="7" transform="rotate(-20 719.685 2265.56)" fill="#0030AA"/>
<line x1="733.438" y1="2259.49" x2="906.342" y2="2196.55" stroke="#0030AA" stroke-width="2"/>
<circle cx="920.78" cy="2192.36" r="7" transform="rotate(-20 920.78 2192.36)" fill="#0030AA"/>
<line x1="934.533" y1="2186.29" x2="1107.44" y2="2123.36" stroke="#0030AA" stroke-width="2"/>
<circle cx="1121.87" cy="2119.17" r="7" transform="rotate(-20 1121.87 2119.17)" fill="#0030AA"/>
<line x1="1135.63" y1="2113.1" x2="1308.53" y2="2050.17" stroke="#0030AA" stroke-width="2"/>
<circle cx="1322.97" cy="2045.98" r="7" transform="rotate(-20 1322.97 2045.98)" fill="#0030AA"/>
<line x1="1336.72" y1="2039.91" x2="1509.62" y2="1976.98" stroke="#0030AA" stroke-width="2"/>
<circle cx="1524.06" cy="1972.79" r="7" transform="rotate(-20 1524.06 1972.79)" fill="#0030AA"/>
<line x1="1537.82" y1="1966.72" x2="1710.72" y2="1903.78" stroke="#0030AA" stroke-width="2"/>
<circle cx="1725.16" cy="1899.59" r="7" transform="rotate(-20 1725.16 1899.59)" fill="#0030AA"/>
<line x1="1738.91" y1="1893.52" x2="1911.81" y2="1830.59" stroke="#0030AA" stroke-width="2"/>
<circle cx="1926.25" cy="1826.4" r="7" transform="rotate(-20 1926.25 1826.4)" fill="#0030AA"/>
<line x1="1940" y1="1820.33" x2="2112.91" y2="1757.4" stroke="#0030AA" stroke-width="2"/>
<circle cx="2127.34" cy="1753.21" r="7" transform="rotate(-20 2127.34 1753.21)" fill="#0030AA"/>
<line x1="2141.1" y1="1747.14" x2="2314" y2="1684.21" stroke="#0030AA" stroke-width="2"/>
<circle cx="2328.44" cy="1680.02" r="7" transform="rotate(-20 2328.44 1680.02)" fill="#0030AA"/>
<line x1="2342.19" y1="1673.95" x2="2515.1" y2="1611.02" stroke="#0030AA" stroke-width="2"/>
<circle cx="2529.53" cy="1606.82" r="7" transform="rotate(-20 2529.53 1606.82)" fill="#0030AA"/>
<line x1="2543.29" y1="1600.76" x2="2716.19" y2="1537.82" stroke="#0030AA" stroke-width="2"/>
<circle cx="2730.63" cy="1533.63" r="7" transform="rotate(-20 2730.63 1533.63)" fill="#0030AA"/>
<line x1="2744.38" y1="1527.56" x2="2917.28" y2="1464.63" stroke="#0030AA" stroke-width="2"/>
<circle cx="2931.72" cy="1460.44" r="7" transform="rotate(-20 2931.72 1460.44)" fill="#0030AA"/>
<line x1="2945.48" y1="1454.37" x2="3118.38" y2="1391.44" stroke="#0030AA" stroke-width="2"/>
<circle cx="3132.81" cy="1387.25" r="7" transform="rotate(-20 3132.81 1387.25)" fill="#0030AA"/>
<line x1="3146.57" y1="1381.18" x2="3319.47" y2="1318.25" stroke="#0030AA" stroke-width="2"/>
<circle cx="3333.91" cy="1314.06" r="7" transform="rotate(-20 3333.91 1314.06)" fill="#0030AA"/>
<line x1="3347.66" y1="1307.99" x2="3520.57" y2="1245.05" stroke="#0030AA" stroke-width="2"/>
<circle cx="3535" cy="1240.86" r="7" transform="rotate(-20 3535 1240.86)" fill="#0030AA"/>
<line x1="3548.76" y1="1234.79" x2="3721.66" y2="1171.86" stroke="#0030AA" stroke-width="2"/>
<circle cx="3736.1" cy="1167.67" r="7" transform="rotate(-20 3736.1 1167.67)" fill="#0030AA"/>
<line x1="465.405" y1="2476.23" x2="638.308" y2="2413.3" stroke="#0030AA" stroke-width="2"/>
<circle cx="652.745" cy="2409.11" r="7" transform="rotate(-20 652.745 2409.11)" fill="#0030AA"/>
<line x1="666.499" y1="2403.04" x2="839.402" y2="2340.11" stroke="#0030AA" stroke-width="2"/>
<circle cx="853.84" cy="2335.92" r="7" transform="rotate(-20 853.84 2335.92)" fill="#0030AA"/>
<line x1="867.594" y1="2329.84" x2="1040.5" y2="2266.91" stroke="#0030AA" stroke-width="2"/>
<circle cx="1054.93" cy="2262.72" r="7" transform="rotate(-20 1054.93 2262.72)" fill="#0030AA"/>
<line x1="1068.69" y1="2256.65" x2="1241.59" y2="2193.72" stroke="#0030AA" stroke-width="2"/>
<circle cx="1256.03" cy="2189.53" r="7" transform="rotate(-20 1256.03 2189.53)" fill="#0030AA"/>
<line x1="1269.78" y1="2183.46" x2="1442.69" y2="2120.53" stroke="#0030AA" stroke-width="2"/>
<circle cx="1457.12" cy="2116.34" r="7" transform="rotate(-20 1457.12 2116.34)" fill="#0030AA"/>
<line x1="1470.88" y1="2110.27" x2="1643.78" y2="2047.34" stroke="#0030AA" stroke-width="2"/>
<circle cx="1658.22" cy="2043.15" r="7" transform="rotate(-20 1658.22 2043.15)" fill="#0030AA"/>
<line x1="1671.97" y1="2037.08" x2="1844.87" y2="1974.14" stroke="#0030AA" stroke-width="2"/>
<circle cx="1859.31" cy="1969.95" r="7" transform="rotate(-20 1859.31 1969.95)" fill="#0030AA"/>
<line x1="1873.06" y1="1963.88" x2="2045.97" y2="1900.95" stroke="#0030AA" stroke-width="2"/>
<circle cx="2060.4" cy="1896.76" r="7" transform="rotate(-20 2060.4 1896.76)" fill="#0030AA"/>
<line x1="2074.16" y1="1890.69" x2="2247.06" y2="1827.76" stroke="#0030AA" stroke-width="2"/>
<circle cx="2261.5" cy="1823.57" r="7" transform="rotate(-20 2261.5 1823.57)" fill="#0030AA"/>
<line x1="2275.25" y1="1817.5" x2="2448.16" y2="1754.57" stroke="#0030AA" stroke-width="2"/>
<circle cx="2462.59" cy="1750.38" r="7" transform="rotate(-20 2462.59 1750.38)" fill="#0030AA"/>
<line x1="2476.35" y1="1744.31" x2="2649.25" y2="1681.38" stroke="#0030AA" stroke-width="2"/>
<circle cx="2663.69" cy="1677.18" r="7" transform="rotate(-20 2663.69 1677.18)" fill="#0030AA"/>
<line x1="2677.44" y1="1671.11" x2="2850.34" y2="1608.18" stroke="#0030AA" stroke-width="2"/>
<circle cx="2864.78" cy="1603.99" r="7" transform="rotate(-20 2864.78 1603.99)" fill="#0030AA"/>
<line x1="2878.54" y1="1597.92" x2="3051.44" y2="1534.99" stroke="#0030AA" stroke-width="2"/>
<circle cx="3065.88" cy="1530.8" r="7" transform="rotate(-20 3065.88 1530.8)" fill="#0030AA"/>
<line x1="3079.63" y1="1524.73" x2="3252.53" y2="1461.8" stroke="#0030AA" stroke-width="2"/>
<circle cx="3266.97" cy="1457.61" r="7" transform="rotate(-20 3266.97 1457.61)" fill="#0030AA"/>
<line x1="3280.72" y1="1451.54" x2="3453.63" y2="1388.61" stroke="#0030AA" stroke-width="2"/>
<circle cx="3468.06" cy="1384.42" r="7" transform="rotate(-20 3468.06 1384.42)" fill="#0030AA"/>
<line x1="3481.82" y1="1378.34" x2="3654.72" y2="1315.41" stroke="#0030AA" stroke-width="2"/>
<circle cx="3669.16" cy="1311.22" r="7" transform="rotate(-20 3669.16 1311.22)" fill="#0030AA"/>
<line x1="608.957" y1="2543.17" x2="781.86" y2="2480.24" stroke="#0030AA" stroke-width="2"/>
<circle cx="796.297" cy="2476.05" r="7" transform="rotate(-20 796.297 2476.05)" fill="#0030AA"/>
<line x1="810.051" y1="2469.98" x2="982.954" y2="2407.05" stroke="#0030AA" stroke-width="2"/>
<circle cx="997.392" cy="2402.85" r="7" transform="rotate(-20 997.392 2402.85)" fill="#0030AA"/>
<line x1="1011.15" y1="2396.78" x2="1184.05" y2="2333.85" stroke="#0030AA" stroke-width="2"/>
<circle cx="1198.49" cy="2329.66" r="7" transform="rotate(-20 1198.49 2329.66)" fill="#0030AA"/>
<line x1="1212.24" y1="2323.59" x2="1385.14" y2="2260.66" stroke="#0030AA" stroke-width="2"/>
<circle cx="1399.58" cy="2256.47" r="7" transform="rotate(-20 1399.58 2256.47)" fill="#0030AA"/>
<line x1="1413.33" y1="2250.4" x2="1586.24" y2="2187.47" stroke="#0030AA" stroke-width="2"/>
<circle cx="1600.67" cy="2183.28" r="7" transform="rotate(-20 1600.67 2183.28)" fill="#0030AA"/>
<line x1="1614.43" y1="2177.21" x2="1787.33" y2="2114.28" stroke="#0030AA" stroke-width="2"/>
<circle cx="1801.77" cy="2110.08" r="7" transform="rotate(-20 1801.77 2110.08)" fill="#0030AA"/>
<line x1="1815.52" y1="2104.02" x2="1988.42" y2="2041.08" stroke="#0030AA" stroke-width="2"/>
<circle cx="2002.86" cy="2036.89" r="7" transform="rotate(-20 2002.86 2036.89)" fill="#0030AA"/>
<line x1="2016.62" y1="2030.82" x2="2189.52" y2="1967.89" stroke="#0030AA" stroke-width="2"/>
<circle cx="2203.96" cy="1963.7" r="7" transform="rotate(-20 2203.96 1963.7)" fill="#0030AA"/>
<line x1="2217.71" y1="1957.63" x2="2390.61" y2="1894.7" stroke="#0030AA" stroke-width="2"/>
<circle cx="2405.05" cy="1890.51" r="7" transform="rotate(-20 2405.05 1890.51)" fill="#0030AA"/>
<line x1="2418.8" y1="1884.44" x2="2591.71" y2="1821.51" stroke="#0030AA" stroke-width="2"/>
<circle cx="2606.15" cy="1817.32" r="7" transform="rotate(-20 2606.15 1817.32)" fill="#0030AA"/>
<line x1="2619.9" y1="1811.25" x2="2792.8" y2="1748.31" stroke="#0030AA" stroke-width="2"/>
<circle cx="2807.24" cy="1744.12" r="7" transform="rotate(-20 2807.24 1744.12)" fill="#0030AA"/>
<line x1="2820.99" y1="1738.05" x2="2993.9" y2="1675.12" stroke="#0030AA" stroke-width="2"/>
<circle cx="3008.33" cy="1670.93" r="7" transform="rotate(-20 3008.33 1670.93)" fill="#0030AA"/>
<line x1="3022.09" y1="1664.86" x2="3194.99" y2="1601.93" stroke="#0030AA" stroke-width="2"/>
<circle cx="3209.43" cy="1597.74" r="7" transform="rotate(-20 3209.43 1597.74)" fill="#0030AA"/>
<line x1="3223.18" y1="1591.67" x2="3396.08" y2="1528.74" stroke="#0030AA" stroke-width="2"/>
<circle cx="3410.52" cy="1524.55" r="7" transform="rotate(-20 3410.52 1524.55)" fill="#0030AA"/>
<line x1="3424.28" y1="1518.48" x2="3597.18" y2="1455.55" stroke="#0030AA" stroke-width="2"/>
<circle cx="3611.62" cy="1451.35" r="7" transform="rotate(-20 3611.62 1451.35)" fill="#0030AA"/>
<line x1="3625.37" y1="1445.28" x2="3798.27" y2="1382.35" stroke="#0030AA" stroke-width="2"/>
<circle cx="3812.71" cy="1378.16" r="7" transform="rotate(-20 3812.71 1378.16)" fill="#0030AA"/>
<line x1="542.017" y1="2686.72" x2="714.921" y2="2623.79" stroke="#0030AA" stroke-width="2"/>
<circle cx="729.358" cy="2619.6" r="7" transform="rotate(-20 729.358 2619.6)" fill="#0030AA"/>
<line x1="743.111" y1="2613.53" x2="916.015" y2="2550.6" stroke="#0030AA" stroke-width="2"/>
<circle cx="930.452" cy="2546.41" r="7" transform="rotate(-20 930.452 2546.41)" fill="#0030AA"/>
<line x1="944.206" y1="2540.34" x2="1117.11" y2="2477.4" stroke="#0030AA" stroke-width="2"/>
<circle cx="1131.55" cy="2473.21" r="7" transform="rotate(-20 1131.55 2473.21)" fill="#0030AA"/>
<line x1="1145.3" y1="2467.14" x2="1318.2" y2="2404.21" stroke="#0030AA" stroke-width="2"/>
<circle cx="1332.64" cy="2400.02" r="7" transform="rotate(-20 1332.64 2400.02)" fill="#0030AA"/>
<line x1="1346.39" y1="2393.95" x2="1519.3" y2="2331.02" stroke="#0030AA" stroke-width="2"/>
<circle cx="1533.73" cy="2326.83" r="7" transform="rotate(-20 1533.73 2326.83)" fill="#0030AA"/>
<line x1="1547.49" y1="2320.76" x2="1720.39" y2="2257.83" stroke="#0030AA" stroke-width="2"/>
<circle cx="1734.83" cy="2253.64" r="7" transform="rotate(-20 1734.83 2253.64)" fill="#0030AA"/>
<line x1="1748.58" y1="2247.57" x2="1921.49" y2="2184.64" stroke="#0030AA" stroke-width="2"/>
<circle cx="1935.92" cy="2180.44" r="7" transform="rotate(-20 1935.92 2180.44)" fill="#0030AA"/>
<line x1="1949.68" y1="2174.37" x2="2122.58" y2="2111.44" stroke="#0030AA" stroke-width="2"/>
<circle cx="2137.02" cy="2107.25" r="7" transform="rotate(-20 2137.02 2107.25)" fill="#0030AA"/>
<line x1="2150.77" y1="2101.18" x2="2323.67" y2="2038.25" stroke="#0030AA" stroke-width="2"/>
<circle cx="2338.11" cy="2034.06" r="7" transform="rotate(-20 2338.11 2034.06)" fill="#0030AA"/>
<line x1="2351.87" y1="2027.99" x2="2524.77" y2="1965.06" stroke="#0030AA" stroke-width="2"/>
<circle cx="2539.21" cy="1960.87" r="7" transform="rotate(-20 2539.21 1960.87)" fill="#0030AA"/>
<line x1="2552.96" y1="1954.8" x2="2725.86" y2="1891.87" stroke="#0030AA" stroke-width="2"/>
<circle cx="2740.3" cy="1887.68" r="7" transform="rotate(-20 2740.3 1887.68)" fill="#0030AA"/>
<line x1="2754.05" y1="1881.61" x2="2926.96" y2="1818.67" stroke="#0030AA" stroke-width="2"/>
<circle cx="2941.39" cy="1814.48" r="7" transform="rotate(-20 2941.39 1814.48)" fill="#0030AA"/>
<line x1="2955.15" y1="1808.41" x2="3128.05" y2="1745.48" stroke="#0030AA" stroke-width="2"/>
<circle cx="3142.49" cy="1741.29" r="7" transform="rotate(-20 3142.49 1741.29)" fill="#0030AA"/>
<line x1="3156.24" y1="1735.22" x2="3329.15" y2="1672.29" stroke="#0030AA" stroke-width="2"/>
<circle cx="3343.58" cy="1668.1" r="7" transform="rotate(-20 3343.58 1668.1)" fill="#0030AA"/>
<line x1="3357.34" y1="1662.03" x2="3530.24" y2="1599.1" stroke="#0030AA" stroke-width="2"/>
<circle cx="3544.68" cy="1594.91" r="7" transform="rotate(-20 3544.68 1594.91)" fill="#0030AA"/>
<line x1="3558.43" y1="1588.84" x2="3731.33" y2="1525.9" stroke="#0030AA" stroke-width="2"/>
<circle cx="3745.77" cy="1521.71" r="7" transform="rotate(-20 3745.77 1521.71)" fill="#0030AA"/>
<line x1="685.569" y1="2753.66" x2="858.473" y2="2690.73" stroke="#0030AA" stroke-width="2"/>
<circle cx="872.909" cy="2686.54" r="7" transform="rotate(-20 872.909 2686.54)" fill="#0030AA"/>
<line x1="886.663" y1="2680.47" x2="1059.57" y2="2617.54" stroke="#0030AA" stroke-width="2"/>
<circle cx="1074" cy="2613.35" r="7" transform="rotate(-20 1074 2613.35)" fill="#0030AA"/>
<line x1="1087.76" y1="2607.28" x2="1260.66" y2="2544.34" stroke="#0030AA" stroke-width="2"/>
<circle cx="1275.1" cy="2540.15" r="7" transform="rotate(-20 1275.1 2540.15)" fill="#0030AA"/>
<line x1="1288.85" y1="2534.08" x2="1461.75" y2="2471.15" stroke="#0030AA" stroke-width="2"/>
<circle cx="1476.19" cy="2466.96" r="7" transform="rotate(-20 1476.19 2466.96)" fill="#0030AA"/>
<line x1="1489.95" y1="2460.89" x2="1662.85" y2="2397.96" stroke="#0030AA" stroke-width="2"/>
<circle cx="1677.29" cy="2393.77" r="7" transform="rotate(-20 1677.29 2393.77)" fill="#0030AA"/>
<line x1="1691.04" y1="2387.7" x2="1863.94" y2="2324.77" stroke="#0030AA" stroke-width="2"/>
<circle cx="1878.38" cy="2320.58" r="7" transform="rotate(-20 1878.38 2320.58)" fill="#0030AA"/>
<line x1="1892.13" y1="2314.51" x2="2065.04" y2="2251.57" stroke="#0030AA" stroke-width="2"/>
<circle cx="2079.47" cy="2247.38" r="7" transform="rotate(-20 2079.47 2247.38)" fill="#0030AA"/>
<line x1="2093.23" y1="2241.31" x2="2266.13" y2="2178.38" stroke="#0030AA" stroke-width="2"/>
<circle cx="2280.57" cy="2174.19" r="7" transform="rotate(-20 2280.57 2174.19)" fill="#0030AA"/>
<line x1="2294.32" y1="2168.12" x2="2467.23" y2="2105.19" stroke="#0030AA" stroke-width="2"/>
<circle cx="2481.66" cy="2101" r="7" transform="rotate(-20 2481.66 2101)" fill="#0030AA"/>
<line x1="2495.42" y1="2094.93" x2="2668.32" y2="2032" stroke="#0030AA" stroke-width="2"/>
<circle cx="2682.76" cy="2027.81" r="7" transform="rotate(-20 2682.76 2027.81)" fill="#0030AA"/>
<line x1="2696.51" y1="2021.74" x2="2869.41" y2="1958.81" stroke="#0030AA" stroke-width="2"/>
<circle cx="2883.85" cy="1954.61" r="7" transform="rotate(-20 2883.85 1954.61)" fill="#0030AA"/>
<line x1="2897.6" y1="1948.55" x2="3070.51" y2="1885.61" stroke="#0030AA" stroke-width="2"/>
<circle cx="3084.95" cy="1881.42" r="7" transform="rotate(-20 3084.95 1881.42)" fill="#0030AA"/>
<line x1="3098.7" y1="1875.35" x2="3271.6" y2="1812.42" stroke="#0030AA" stroke-width="2"/>
<circle cx="3286.04" cy="1808.23" r="7" transform="rotate(-20 3286.04 1808.23)" fill="#0030AA"/>
<line x1="3299.79" y1="1802.16" x2="3472.7" y2="1739.23" stroke="#0030AA" stroke-width="2"/>
<circle cx="3487.14" cy="1735.04" r="7" transform="rotate(-20 3487.14 1735.04)" fill="#0030AA"/>
<line x1="3500.89" y1="1728.97" x2="3673.79" y2="1666.04" stroke="#0030AA" stroke-width="2"/>
<circle cx="3688.23" cy="1661.85" r="7" transform="rotate(-20 3688.23 1661.85)" fill="#0030AA"/>
<line x1="3701.98" y1="1655.78" x2="3874.88" y2="1592.84" stroke="#0030AA" stroke-width="2"/>
<circle cx="3889.32" cy="1588.65" r="7" transform="rotate(-20 3889.32 1588.65)" fill="#0030AA"/>
<line x1="618.63" y1="2897.21" x2="791.533" y2="2834.28" stroke="#0030AA" stroke-width="2"/>
<circle cx="805.97" cy="2830.09" r="7" transform="rotate(-20 805.97 2830.09)" fill="#0030AA"/>
<line x1="819.723" y1="2824.02" x2="992.627" y2="2761.09" stroke="#0030AA" stroke-width="2"/>
<circle cx="1007.06" cy="2756.9" r="7" transform="rotate(-20 1007.06 2756.9)" fill="#0030AA"/>
<line x1="1020.82" y1="2750.83" x2="1193.72" y2="2687.9" stroke="#0030AA" stroke-width="2"/>
<circle cx="1208.16" cy="2683.71" r="7" transform="rotate(-20 1208.16 2683.71)" fill="#0030AA"/>
<line x1="1221.91" y1="2677.64" x2="1394.82" y2="2614.7" stroke="#0030AA" stroke-width="2"/>
<circle cx="1409.25" cy="2610.51" r="7" transform="rotate(-20 1409.25 2610.51)" fill="#0030AA"/>
<line x1="1423.01" y1="2604.44" x2="1595.91" y2="2541.51" stroke="#0030AA" stroke-width="2"/>
<circle cx="1610.35" cy="2537.32" r="7" transform="rotate(-20 1610.35 2537.32)" fill="#0030AA"/>
<line x1="1624.1" y1="2531.25" x2="1797" y2="2468.32" stroke="#0030AA" stroke-width="2"/>
<circle cx="1811.44" cy="2464.13" r="7" transform="rotate(-20 1811.44 2464.13)" fill="#0030AA"/>
<line x1="1825.19" y1="2458.06" x2="1998.1" y2="2395.13" stroke="#0030AA" stroke-width="2"/>
<circle cx="2012.54" cy="2390.94" r="7" transform="rotate(-20 2012.54 2390.94)" fill="#0030AA"/>
<line x1="2026.29" y1="2384.87" x2="2199.19" y2="2321.93" stroke="#0030AA" stroke-width="2"/>
<circle cx="2213.63" cy="2317.74" r="7" transform="rotate(-20 2213.63 2317.74)" fill="#0030AA"/>
<line x1="2227.38" y1="2311.67" x2="2400.29" y2="2248.74" stroke="#0030AA" stroke-width="2"/>
<circle cx="2414.72" cy="2244.55" r="7" transform="rotate(-20 2414.72 2244.55)" fill="#0030AA"/>
<line x1="2428.48" y1="2238.48" x2="2601.38" y2="2175.55" stroke="#0030AA" stroke-width="2"/>
<circle cx="2615.82" cy="2171.36" r="7" transform="rotate(-20 2615.82 2171.36)" fill="#0030AA"/>
<line x1="2629.57" y1="2165.29" x2="2802.47" y2="2102.36" stroke="#0030AA" stroke-width="2"/>
<circle cx="2816.91" cy="2098.17" r="7" transform="rotate(-20 2816.91 2098.17)" fill="#0030AA"/>
<line x1="2830.66" y1="2092.1" x2="3003.57" y2="2029.17" stroke="#0030AA" stroke-width="2"/>
<circle cx="3018.01" cy="2024.97" r="7" transform="rotate(-20 3018.01 2024.97)" fill="#0030AA"/>
<line x1="3031.76" y1="2018.9" x2="3204.66" y2="1955.97" stroke="#0030AA" stroke-width="2"/>
<circle cx="3219.1" cy="1951.78" r="7" transform="rotate(-20 3219.1 1951.78)" fill="#0030AA"/>
<line x1="3232.85" y1="1945.71" x2="3405.76" y2="1882.78" stroke="#0030AA" stroke-width="2"/>
<circle cx="3420.2" cy="1878.59" r="7" transform="rotate(-20 3420.2 1878.59)" fill="#0030AA"/>
<line x1="3433.95" y1="1872.52" x2="3606.85" y2="1809.59" stroke="#0030AA" stroke-width="2"/>
<circle cx="3621.29" cy="1805.4" r="7" transform="rotate(-20 3621.29 1805.4)" fill="#0030AA"/>
<line x1="3635.04" y1="1799.33" x2="3807.95" y2="1736.4" stroke="#0030AA" stroke-width="2"/>
<circle cx="3822.38" cy="1732.21" r="7" transform="rotate(-20 3822.38 1732.21)" fill="#0030AA"/>
<line x1="762.181" y1="2964.15" x2="935.085" y2="2901.22" stroke="#0030AA" stroke-width="2"/>
<circle cx="949.522" cy="2897.03" r="7" transform="rotate(-20 949.522 2897.03)" fill="#0030AA"/>
<line x1="963.275" y1="2890.96" x2="1136.18" y2="2828.03" stroke="#0030AA" stroke-width="2"/>
<circle cx="1150.62" cy="2823.84" r="7" transform="rotate(-20 1150.62 2823.84)" fill="#0030AA"/>
<line x1="1164.37" y1="2817.77" x2="1337.27" y2="2754.83" stroke="#0030AA" stroke-width="2"/>
<circle cx="1351.71" cy="2750.64" r="7" transform="rotate(-20 1351.71 2750.64)" fill="#0030AA"/>
<line x1="1365.46" y1="2744.57" x2="1538.37" y2="2681.64" stroke="#0030AA" stroke-width="2"/>
<circle cx="1552.81" cy="2677.45" r="7" transform="rotate(-20 1552.81 2677.45)" fill="#0030AA"/>
<line x1="1566.56" y1="2671.38" x2="1739.46" y2="2608.45" stroke="#0030AA" stroke-width="2"/>
<circle cx="1753.9" cy="2604.26" r="7" transform="rotate(-20 1753.9 2604.26)" fill="#0030AA"/>
<line x1="1767.65" y1="2598.19" x2="1940.56" y2="2535.26" stroke="#0030AA" stroke-width="2"/>
<circle cx="1954.99" cy="2531.07" r="7" transform="rotate(-20 1954.99 2531.07)" fill="#0030AA"/>
<line x1="1968.75" y1="2525" x2="2141.65" y2="2462.07" stroke="#0030AA" stroke-width="2"/>
<circle cx="2156.09" cy="2457.88" r="7" transform="rotate(-20 2156.09 2457.88)" fill="#0030AA"/>
<line x1="2169.84" y1="2451.8" x2="2342.74" y2="2388.87" stroke="#0030AA" stroke-width="2"/>
<circle cx="2357.18" cy="2384.68" r="7" transform="rotate(-20 2357.18 2384.68)" fill="#0030AA"/>
<line x1="2370.94" y1="2378.61" x2="2543.84" y2="2315.68" stroke="#0030AA" stroke-width="2"/>
<circle cx="2558.27" cy="2311.49" r="7" transform="rotate(-20 2558.27 2311.49)" fill="#0030AA"/>
<line x1="2572.03" y1="2305.42" x2="2744.93" y2="2242.49" stroke="#0030AA" stroke-width="2"/>
<circle cx="2759.37" cy="2238.3" r="7" transform="rotate(-20 2759.37 2238.3)" fill="#0030AA"/>
<line x1="2773.12" y1="2232.23" x2="2946.03" y2="2169.3" stroke="#0030AA" stroke-width="2"/>
<circle cx="2960.46" cy="2165.11" r="7" transform="rotate(-20 2960.46 2165.11)" fill="#0030AA"/>
<line x1="2974.22" y1="2159.04" x2="3147.12" y2="2096.1" stroke="#0030AA" stroke-width="2"/>
<circle cx="3161.56" cy="2091.91" r="7" transform="rotate(-20 3161.56 2091.91)" fill="#0030AA"/>
<line x1="3175.31" y1="2085.84" x2="3348.22" y2="2022.91" stroke="#0030AA" stroke-width="2"/>
<circle cx="3362.65" cy="2018.72" r="7" transform="rotate(-20 3362.65 2018.72)" fill="#0030AA"/>
<line x1="3376.41" y1="2012.65" x2="3549.31" y2="1949.72" stroke="#0030AA" stroke-width="2"/>
<circle cx="3563.75" cy="1945.53" r="7" transform="rotate(-20 3563.75 1945.53)" fill="#0030AA"/>
<line x1="3577.5" y1="1939.46" x2="3750.4" y2="1876.53" stroke="#0030AA" stroke-width="2"/>
<circle cx="3764.84" cy="1872.34" r="7" transform="rotate(-20 3764.84 1872.34)" fill="#0030AA"/>
<line x1="3778.59" y1="1866.27" x2="3951.5" y2="1803.33" stroke="#0030AA" stroke-width="2"/>
<circle cx="3965.93" cy="1799.14" r="7" transform="rotate(-20 3965.93 1799.14)" fill="#0030AA"/>
<line x1="695.243" y1="3107.7" x2="868.146" y2="3044.77" stroke="#0030AA" stroke-width="2"/>
<circle cx="882.583" cy="3040.58" r="7" transform="rotate(-20 882.583 3040.58)" fill="#0030AA"/>
<line x1="896.337" y1="3034.51" x2="1069.24" y2="2971.58" stroke="#0030AA" stroke-width="2"/>
<circle cx="1083.68" cy="2967.39" r="7" transform="rotate(-20 1083.68 2967.39)" fill="#0030AA"/>
<line x1="1097.43" y1="2961.32" x2="1270.33" y2="2898.39" stroke="#0030AA" stroke-width="2"/>
<circle cx="1284.77" cy="2894.2" r="7" transform="rotate(-20 1284.77 2894.2)" fill="#0030AA"/>
<line x1="1298.53" y1="2888.13" x2="1471.43" y2="2825.2" stroke="#0030AA" stroke-width="2"/>
<circle cx="1485.87" cy="2821" r="7" transform="rotate(-20 1485.87 2821)" fill="#0030AA"/>
<line x1="1499.62" y1="2814.93" x2="1672.52" y2="2752" stroke="#0030AA" stroke-width="2"/>
<circle cx="1686.96" cy="2747.81" r="7" transform="rotate(-20 1686.96 2747.81)" fill="#0030AA"/>
<line x1="1700.71" y1="2741.74" x2="1873.62" y2="2678.81" stroke="#0030AA" stroke-width="2"/>
<circle cx="1888.06" cy="2674.62" r="7" transform="rotate(-20 1888.06 2674.62)" fill="#0030AA"/>
<line x1="1901.81" y1="2668.55" x2="2074.71" y2="2605.62" stroke="#0030AA" stroke-width="2"/>
<circle cx="2089.15" cy="2601.43" r="7" transform="rotate(-20 2089.15 2601.43)" fill="#0030AA"/>
<line x1="2102.9" y1="2595.36" x2="2275.8" y2="2532.43" stroke="#0030AA" stroke-width="2"/>
<circle cx="2290.24" cy="2528.23" r="7" transform="rotate(-20 2290.24 2528.23)" fill="#0030AA"/>
<line x1="2304" y1="2522.16" x2="2476.9" y2="2459.23" stroke="#0030AA" stroke-width="2"/>
<circle cx="2491.34" cy="2455.04" r="7" transform="rotate(-20 2491.34 2455.04)" fill="#0030AA"/>
<line x1="2505.09" y1="2448.97" x2="2677.99" y2="2386.04" stroke="#0030AA" stroke-width="2"/>
<circle cx="2692.43" cy="2381.85" r="7" transform="rotate(-20 2692.43 2381.85)" fill="#0030AA"/>
<line x1="2706.18" y1="2375.78" x2="2879.09" y2="2312.85" stroke="#0030AA" stroke-width="2"/>
<circle cx="2893.53" cy="2308.66" r="7" transform="rotate(-20 2893.53 2308.66)" fill="#0030AA"/>
<line x1="2907.28" y1="2302.59" x2="3080.18" y2="2239.66" stroke="#0030AA" stroke-width="2"/>
<circle cx="3094.62" cy="2235.47" r="7" transform="rotate(-20 3094.62 2235.47)" fill="#0030AA"/>
<line x1="3108.37" y1="2229.4" x2="3281.28" y2="2166.46" stroke="#0030AA" stroke-width="2"/>
<circle cx="3295.71" cy="2162.27" r="7" transform="rotate(-20 3295.71 2162.27)" fill="#0030AA"/>
<line x1="3309.47" y1="2156.2" x2="3482.37" y2="2093.27" stroke="#0030AA" stroke-width="2"/>
<circle cx="3496.81" cy="2089.08" r="7" transform="rotate(-20 3496.81 2089.08)" fill="#0030AA"/>
<line x1="3510.56" y1="2083.01" x2="3683.46" y2="2020.08" stroke="#0030AA" stroke-width="2"/>
<circle cx="3697.9" cy="2015.89" r="7" transform="rotate(-20 3697.9 2015.89)" fill="#0030AA"/>
<line x1="3711.66" y1="2009.82" x2="3884.56" y2="1946.89" stroke="#0030AA" stroke-width="2"/>
<circle cx="3899" cy="1942.7" r="7" transform="rotate(-20 3899 1942.7)" fill="#0030AA"/>
<line x1="838.795" y1="3174.64" x2="1011.7" y2="3111.71" stroke="#0030AA" stroke-width="2"/>
<circle cx="1026.14" cy="3107.52" r="7" transform="rotate(-20 1026.14 3107.52)" fill="#0030AA"/>
<line x1="1039.89" y1="3101.45" x2="1212.79" y2="3038.52" stroke="#0030AA" stroke-width="2"/>
<circle cx="1227.23" cy="3034.33" r="7" transform="rotate(-20 1227.23 3034.33)" fill="#0030AA"/>
<line x1="1240.98" y1="3028.26" x2="1413.89" y2="2965.33" stroke="#0030AA" stroke-width="2"/>
<circle cx="1428.32" cy="2961.14" r="7" transform="rotate(-20 1428.32 2961.14)" fill="#0030AA"/>
<line x1="1442.08" y1="2955.07" x2="1614.98" y2="2892.13" stroke="#0030AA" stroke-width="2"/>
<circle cx="1629.42" cy="2887.94" r="7" transform="rotate(-20 1629.42 2887.94)" fill="#0030AA"/>
<line x1="1643.17" y1="2881.87" x2="1816.08" y2="2818.94" stroke="#0030AA" stroke-width="2"/>
<circle cx="1830.51" cy="2814.75" r="7" transform="rotate(-20 1830.51 2814.75)" fill="#0030AA"/>
<line x1="1844.27" y1="2808.68" x2="2017.17" y2="2745.75" stroke="#0030AA" stroke-width="2"/>
<circle cx="2031.61" cy="2741.56" r="7" transform="rotate(-20 2031.61 2741.56)" fill="#0030AA"/>
<line x1="2045.36" y1="2735.49" x2="2218.26" y2="2672.56" stroke="#0030AA" stroke-width="2"/>
<circle cx="2232.7" cy="2668.37" r="7" transform="rotate(-20 2232.7 2668.37)" fill="#0030AA"/>
<line x1="2246.45" y1="2662.3" x2="2419.36" y2="2599.36" stroke="#0030AA" stroke-width="2"/>
<circle cx="2433.79" cy="2595.17" r="7" transform="rotate(-20 2433.79 2595.17)" fill="#0030AA"/>
<line x1="2447.55" y1="2589.1" x2="2620.45" y2="2526.17" stroke="#0030AA" stroke-width="2"/>
<circle cx="2634.89" cy="2521.98" r="7" transform="rotate(-20 2634.89 2521.98)" fill="#0030AA"/>
<line x1="2648.64" y1="2515.91" x2="2821.55" y2="2452.98" stroke="#0030AA" stroke-width="2"/>
<circle cx="2835.98" cy="2448.79" r="7" transform="rotate(-20 2835.98 2448.79)" fill="#0030AA"/>
<line x1="2849.74" y1="2442.72" x2="3022.64" y2="2379.79" stroke="#0030AA" stroke-width="2"/>
<circle cx="3037.08" cy="2375.6" r="7" transform="rotate(-20 3037.08 2375.6)" fill="#0030AA"/>
<line x1="3050.83" y1="2369.53" x2="3223.73" y2="2306.6" stroke="#0030AA" stroke-width="2"/>
<circle cx="3238.17" cy="2302.4" r="7" transform="rotate(-20 3238.17 2302.4)" fill="#0030AA"/>
<line x1="3251.93" y1="2296.33" x2="3424.83" y2="2233.4" stroke="#0030AA" stroke-width="2"/>
<circle cx="3439.26" cy="2229.21" r="7" transform="rotate(-20 3439.26 2229.21)" fill="#0030AA"/>
<line x1="3453.02" y1="2223.14" x2="3625.92" y2="2160.21" stroke="#0030AA" stroke-width="2"/>
<circle cx="3640.36" cy="2156.02" r="7" transform="rotate(-20 3640.36 2156.02)" fill="#0030AA"/>
<line x1="3654.11" y1="2149.95" x2="3827.02" y2="2087.02" stroke="#0030AA" stroke-width="2"/>
<circle cx="3841.45" cy="2082.83" r="7" transform="rotate(-20 3841.45 2082.83)" fill="#0030AA"/>
<line x1="3855.21" y1="2076.76" x2="4028.11" y2="2013.83" stroke="#0030AA" stroke-width="2"/>
<circle cx="4042.55" cy="2009.64" r="7" transform="rotate(-20 4042.55 2009.64)" fill="#0030AA"/>
<line x1="771.855" y1="3318.19" x2="944.759" y2="3255.26" stroke="#0030AA" stroke-width="2"/>
<circle cx="959.196" cy="3251.07" r="7" transform="rotate(-20 959.196 3251.07)" fill="#0030AA"/>
<line x1="972.949" y1="3245" x2="1145.85" y2="3182.07" stroke="#0030AA" stroke-width="2"/>
<circle cx="1160.29" cy="3177.88" r="7" transform="rotate(-20 1160.29 3177.88)" fill="#0030AA"/>
<line x1="1174.04" y1="3171.81" x2="1346.95" y2="3108.88" stroke="#0030AA" stroke-width="2"/>
<circle cx="1361.38" cy="3104.69" r="7" transform="rotate(-20 1361.38 3104.69)" fill="#0030AA"/>
<line x1="1375.14" y1="3098.62" x2="1548.04" y2="3035.69" stroke="#0030AA" stroke-width="2"/>
<circle cx="1562.48" cy="3031.49" r="7" transform="rotate(-20 1562.48 3031.49)" fill="#0030AA"/>
<line x1="1576.23" y1="3025.43" x2="1749.14" y2="2962.49" stroke="#0030AA" stroke-width="2"/>
<circle cx="1763.57" cy="2958.3" r="7" transform="rotate(-20 1763.57 2958.3)" fill="#0030AA"/>
<line x1="1777.33" y1="2952.23" x2="1950.23" y2="2889.3" stroke="#0030AA" stroke-width="2"/>
<circle cx="1964.67" cy="2885.11" r="7" transform="rotate(-20 1964.67 2885.11)" fill="#0030AA"/>
<line x1="1978.42" y1="2879.04" x2="2151.32" y2="2816.11" stroke="#0030AA" stroke-width="2"/>
<circle cx="2165.76" cy="2811.92" r="7" transform="rotate(-20 2165.76 2811.92)" fill="#0030AA"/>
<line x1="2179.51" y1="2805.85" x2="2352.42" y2="2742.92" stroke="#0030AA" stroke-width="2"/>
<circle cx="2366.85" cy="2738.73" r="7" transform="rotate(-20 2366.85 2738.73)" fill="#0030AA"/>
<line x1="2380.61" y1="2732.66" x2="2553.51" y2="2669.72" stroke="#0030AA" stroke-width="2"/>
<circle cx="2567.95" cy="2665.53" r="7" transform="rotate(-20 2567.95 2665.53)" fill="#0030AA"/>
<line x1="2581.7" y1="2659.46" x2="2754.61" y2="2596.53" stroke="#0030AA" stroke-width="2"/>
<circle cx="2769.04" cy="2592.34" r="7" transform="rotate(-20 2769.04 2592.34)" fill="#0030AA"/>
<line x1="2782.8" y1="2586.27" x2="2955.7" y2="2523.34" stroke="#0030AA" stroke-width="2"/>
<circle cx="2970.14" cy="2519.15" r="7" transform="rotate(-20 2970.14 2519.15)" fill="#0030AA"/>
<line x1="2983.89" y1="2513.08" x2="3156.79" y2="2450.15" stroke="#0030AA" stroke-width="2"/>
<circle cx="3171.23" cy="2445.96" r="7" transform="rotate(-20 3171.23 2445.96)" fill="#0030AA"/>
<line x1="3184.99" y1="2439.89" x2="3357.89" y2="2376.95" stroke="#0030AA" stroke-width="2"/>
<circle cx="3372.33" cy="2372.76" r="7" transform="rotate(-20 3372.33 2372.76)" fill="#0030AA"/>
<line x1="3386.08" y1="2366.69" x2="3558.98" y2="2303.76" stroke="#0030AA" stroke-width="2"/>
<circle cx="3573.42" cy="2299.57" r="7" transform="rotate(-20 3573.42 2299.57)" fill="#0030AA"/>
<line x1="3587.17" y1="2293.5" x2="3760.08" y2="2230.57" stroke="#0030AA" stroke-width="2"/>
<circle cx="3774.51" cy="2226.38" r="7" transform="rotate(-20 3774.51 2226.38)" fill="#0030AA"/>
<line x1="3788.27" y1="2220.31" x2="3961.17" y2="2157.38" stroke="#0030AA" stroke-width="2"/>
<circle cx="3975.61" cy="2153.19" r="7" transform="rotate(-20 3975.61 2153.19)" fill="#0030AA"/>
<line x1="915.407" y1="3385.13" x2="1088.31" y2="3322.2" stroke="#0030AA" stroke-width="2"/>
<circle cx="1102.75" cy="3318.01" r="7" transform="rotate(-20 1102.75 3318.01)" fill="#0030AA"/>
<line x1="1116.5" y1="3311.94" x2="1289.4" y2="3249.01" stroke="#0030AA" stroke-width="2"/>
<circle cx="1303.84" cy="3244.82" r="7" transform="rotate(-20 1303.84 3244.82)" fill="#0030AA"/>
<line x1="1317.6" y1="3238.75" x2="1490.5" y2="3175.82" stroke="#0030AA" stroke-width="2"/>
<circle cx="1504.94" cy="3171.63" r="7" transform="rotate(-20 1504.94 3171.63)" fill="#0030AA"/>
<line x1="1518.69" y1="3165.56" x2="1691.59" y2="3102.63" stroke="#0030AA" stroke-width="2"/>
<circle cx="1706.03" cy="3098.43" r="7" transform="rotate(-20 1706.03 3098.43)" fill="#0030AA"/>
<line x1="1719.78" y1="3092.36" x2="1892.69" y2="3029.43" stroke="#0030AA" stroke-width="2"/>
<circle cx="1907.13" cy="3025.24" r="7" transform="rotate(-20 1907.13 3025.24)" fill="#0030AA"/>
<line x1="1920.88" y1="3019.17" x2="2093.78" y2="2956.24" stroke="#0030AA" stroke-width="2"/>
<circle cx="2108.22" cy="2952.05" r="7" transform="rotate(-20 2108.22 2952.05)" fill="#0030AA"/>
<line x1="2121.97" y1="2945.98" x2="2294.88" y2="2883.05" stroke="#0030AA" stroke-width="2"/>
<circle cx="2309.31" cy="2878.86" r="7" transform="rotate(-20 2309.31 2878.86)" fill="#0030AA"/>
<line x1="2323.07" y1="2872.79" x2="2495.97" y2="2809.86" stroke="#0030AA" stroke-width="2"/>
<circle cx="2510.41" cy="2805.67" r="7" transform="rotate(-20 2510.41 2805.67)" fill="#0030AA"/>
<line x1="2524.16" y1="2799.59" x2="2697.06" y2="2736.66" stroke="#0030AA" stroke-width="2"/>
<circle cx="2711.5" cy="2732.47" r="7" transform="rotate(-20 2711.5 2732.47)" fill="#0030AA"/>
<line x1="2725.25" y1="2726.4" x2="2898.16" y2="2663.47" stroke="#0030AA" stroke-width="2"/>
<circle cx="2912.6" cy="2659.28" r="7" transform="rotate(-20 2912.6 2659.28)" fill="#0030AA"/>
<line x1="2926.35" y1="2653.21" x2="3099.25" y2="2590.28" stroke="#0030AA" stroke-width="2"/>
<circle cx="3113.69" cy="2586.09" r="7" transform="rotate(-20 3113.69 2586.09)" fill="#0030AA"/>
<line x1="3127.44" y1="2580.02" x2="3300.35" y2="2517.09" stroke="#0030AA" stroke-width="2"/>
<circle cx="3314.78" cy="2512.9" r="7" transform="rotate(-20 3314.78 2512.9)" fill="#0030AA"/>
<line x1="3328.54" y1="2506.83" x2="3501.44" y2="2443.89" stroke="#0030AA" stroke-width="2"/>
<circle cx="3515.88" cy="2439.7" r="7" transform="rotate(-20 3515.88 2439.7)" fill="#0030AA"/>
<line x1="3529.63" y1="2433.63" x2="3702.54" y2="2370.7" stroke="#0030AA" stroke-width="2"/>
<circle cx="3716.97" cy="2366.51" r="7" transform="rotate(-20 3716.97 2366.51)" fill="#0030AA"/>
<line x1="3730.73" y1="2360.44" x2="3903.63" y2="2297.51" stroke="#0030AA" stroke-width="2"/>
<circle cx="3918.07" cy="2293.32" r="7" transform="rotate(-20 3918.07 2293.32)" fill="#0030AA"/>
<line x1="3931.82" y1="2287.25" x2="4104.72" y2="2224.32" stroke="#0030AA" stroke-width="2"/>
<circle cx="4119.16" cy="2220.13" r="7" transform="rotate(-20 4119.16 2220.13)" fill="#0030AA"/>
<line x1="848.473" y1="3528.69" x2="1021.38" y2="3465.76" stroke="#0030AA" stroke-width="2"/>
<circle r="7" transform="matrix(0.939691 -0.342025 0.342016 0.939694 1035.81 3461.57)" fill="#0030AA"/>
<line y1="-1" x2="184" y2="-1" transform="matrix(0.939692 -0.342021 0.342019 0.939693 1049.91 3456.44)" stroke="#0030AA" stroke-width="2"/>
<circle r="7" transform="matrix(0.939691 -0.342025 0.342015 0.939694 1236.91 3388.37)" fill="#0030AA"/>
<line x1="1250.66" y1="3382.3" x2="1423.56" y2="3319.37" stroke="#0030AA" stroke-width="2"/>
<circle cx="1438" cy="3315.18" r="7" transform="rotate(-20 1438 3315.18)" fill="#0030AA"/>
<line x1="1451.75" y1="3309.11" x2="1624.65" y2="3246.18" stroke="#0030AA" stroke-width="2"/>
<circle cx="1639.09" cy="3241.99" r="7" transform="rotate(-20 1639.09 3241.99)" fill="#0030AA"/>
<line x1="1652.84" y1="3235.92" x2="1825.75" y2="3172.98" stroke="#0030AA" stroke-width="2"/>
<circle cx="1840.19" cy="3168.79" r="7" transform="rotate(-20 1840.19 3168.79)" fill="#0030AA"/>
<line x1="1853.94" y1="3162.72" x2="2026.84" y2="3099.79" stroke="#0030AA" stroke-width="2"/>
<circle cx="2041.28" cy="3095.6" r="7" transform="rotate(-20 2041.28 3095.6)" fill="#0030AA"/>
<line x1="2055.03" y1="3089.53" x2="2227.94" y2="3026.6" stroke="#0030AA" stroke-width="2"/>
<circle cx="2242.37" cy="3022.41" r="7" transform="rotate(-20 2242.37 3022.41)" fill="#0030AA"/>
<line x1="2256.13" y1="3016.34" x2="2429.03" y2="2953.41" stroke="#0030AA" stroke-width="2"/>
<circle cx="2443.47" cy="2949.22" r="7" transform="rotate(-20 2443.47 2949.22)" fill="#0030AA"/>
<line x1="2457.22" y1="2943.15" x2="2630.13" y2="2880.22" stroke="#0030AA" stroke-width="2"/>
<circle cx="2644.56" cy="2876.02" r="7" transform="rotate(-20 2644.56 2876.02)" fill="#0030AA"/>
<line x1="2658.32" y1="2869.95" x2="2831.22" y2="2807.02" stroke="#0030AA" stroke-width="2"/>
<circle cx="2845.66" cy="2802.83" r="7" transform="rotate(-20 2845.66 2802.83)" fill="#0030AA"/>
<line x1="2859.41" y1="2796.76" x2="3032.31" y2="2733.83" stroke="#0030AA" stroke-width="2"/>
<circle cx="3046.75" cy="2729.64" r="7" transform="rotate(-20 3046.75 2729.64)" fill="#0030AA"/>
<line x1="3060.5" y1="2723.57" x2="3233.41" y2="2660.64" stroke="#0030AA" stroke-width="2"/>
<circle cx="3247.84" cy="2656.45" r="7" transform="rotate(-20 3247.84 2656.45)" fill="#0030AA"/>
<line x1="3261.6" y1="2650.38" x2="3434.5" y2="2587.45" stroke="#0030AA" stroke-width="2"/>
<circle cx="3448.94" cy="2583.26" r="7" transform="rotate(-20 3448.94 2583.26)" fill="#0030AA"/>
<line x1="3462.69" y1="2577.19" x2="3635.6" y2="2514.25" stroke="#0030AA" stroke-width="2"/>
<circle cx="3650.03" cy="2510.06" r="7" transform="rotate(-20 3650.03 2510.06)" fill="#0030AA"/>
<line x1="3663.79" y1="2503.99" x2="3836.69" y2="2441.06" stroke="#0030AA" stroke-width="2"/>
<circle cx="3851.13" cy="2436.87" r="7" transform="rotate(-20 3851.13 2436.87)" fill="#0030AA"/>
<line x1="3864.88" y1="2430.8" x2="4037.78" y2="2367.87" stroke="#0030AA" stroke-width="2"/>
<circle cx="4052.22" cy="2363.68" r="7" transform="rotate(-20 4052.22 2363.68)" fill="#0030AA"/>
<line y1="-1" x2="184" y2="-1" transform="matrix(0.939692 -0.342021 0.342019 0.939693 992.367 3597.57)" stroke="#0030AA" stroke-width="2"/>
<circle r="7" transform="matrix(0.939691 -0.342025 0.342016 0.939694 1179.37 3529.51)" fill="#0030AA"/>
<line x1="1193.12" y1="3523.44" x2="1366.02" y2="3460.5" stroke="#0030AA" stroke-width="2"/>
<circle r="7" transform="matrix(0.939695 -0.342015 0.342026 0.939691 1380.46 3456.31)" fill="#0030AA"/>
<line x1="1394.21" y1="3450.24" x2="1567.12" y2="3387.31" stroke="#0030AA" stroke-width="2"/>
<circle r="7" transform="matrix(0.939691 -0.342025 0.342016 0.939694 1581.55 3383.12)" fill="#0030AA"/>
<line x1="1595.3" y1="3376.05" x2="1768.2" y2="3313.12" stroke="#0030AA" stroke-width="2"/>
<circle cx="1782.64" cy="3308.93" r="7" transform="rotate(-20 1782.64 3308.93)" fill="#0030AA"/>
<line x1="1796.4" y1="3302.86" x2="1969.3" y2="3239.92" stroke="#0030AA" stroke-width="2"/>
<circle cx="1983.74" cy="3235.73" r="7" transform="rotate(-20 1983.74 3235.73)" fill="#0030AA"/>
<line x1="1997.49" y1="3229.66" x2="2170.39" y2="3166.73" stroke="#0030AA" stroke-width="2"/>
<circle cx="2184.83" cy="3162.54" r="7" transform="rotate(-20 2184.83 3162.54)" fill="#0030AA"/>
<line x1="2198.58" y1="3156.47" x2="2371.49" y2="3093.54" stroke="#0030AA" stroke-width="2"/>
<circle cx="2385.93" cy="3089.35" r="7" transform="rotate(-20 2385.93 3089.35)" fill="#0030AA"/>
<line x1="2399.68" y1="3083.28" x2="2572.58" y2="3020.35" stroke="#0030AA" stroke-width="2"/>
<circle cx="2587.02" cy="3016.16" r="7" transform="rotate(-20 2587.02 3016.16)" fill="#0030AA"/>
<line x1="2600.77" y1="3010.09" x2="2773.68" y2="2947.16" stroke="#0030AA" stroke-width="2"/>
<circle cx="2788.11" cy="2942.96" r="7" transform="rotate(-20 2788.11 2942.96)" fill="#0030AA"/>
<line x1="2801.87" y1="2936.89" x2="2974.77" y2="2873.96" stroke="#0030AA" stroke-width="2"/>
<circle cx="2989.21" cy="2869.77" r="7" transform="rotate(-20 2989.21 2869.77)" fill="#0030AA"/>
<line x1="3002.96" y1="2863.7" x2="3175.86" y2="2800.77" stroke="#0030AA" stroke-width="2"/>
<circle cx="3190.3" cy="2796.58" r="7" transform="rotate(-20 3190.3 2796.58)" fill="#0030AA"/>
<line x1="3204.05" y1="2790.51" x2="3376.96" y2="2727.58" stroke="#0030AA" stroke-width="2"/>
<circle cx="3391.4" cy="2723.39" r="7" transform="rotate(-20 3391.4 2723.39)" fill="#0030AA"/>
<line x1="3405.15" y1="2717.32" x2="3578.05" y2="2654.39" stroke="#0030AA" stroke-width="2"/>
<circle cx="3592.49" cy="2650.19" r="7" transform="rotate(-20 3592.49 2650.19)" fill="#0030AA"/>
<line x1="3606.24" y1="2644.12" x2="3779.15" y2="2581.19" stroke="#0030AA" stroke-width="2"/>
<circle cx="3793.59" cy="2577" r="7" transform="rotate(-20 3793.59 2577)" fill="#0030AA"/>
<line x1="3807.34" y1="2570.93" x2="3980.24" y2="2508" stroke="#0030AA" stroke-width="2"/>
<circle cx="3994.68" cy="2503.81" r="7" transform="rotate(-20 3994.68 2503.81)" fill="#0030AA"/>
<line x1="4008.43" y1="2497.74" x2="4181.33" y2="2434.81" stroke="#0030AA" stroke-width="2"/>
<circle cx="4195.77" cy="2430.62" r="7" transform="rotate(-20 4195.77 2430.62)" fill="#0030AA"/>
<line x1="925.086" y1="3739.18" x2="1097.99" y2="3676.25" stroke="#0030AA" stroke-width="2"/>
<circle r="7" transform="matrix(0.939695 -0.342015 0.342026 0.939691 1112.43 3672.06)" fill="#0030AA"/>
<line x1="1126.18" y1="3665.99" x2="1299.08" y2="3603.06" stroke="#0030AA" stroke-width="2"/>
<circle r="7" transform="matrix(0.939691 -0.342025 0.342016 0.939694 1313.52 3598.87)" fill="#0030AA"/>
<line y1="-1" x2="184" y2="-1" transform="matrix(0.939692 -0.342021 0.342019 0.939693 1327.62 3593.73)" stroke="#0030AA" stroke-width="2"/>
<circle r="7" transform="matrix(0.939691 -0.342025 0.342016 0.939694 1514.61 3525.67)" fill="#0030AA"/>
<line x1="1528.37" y1="3519.6" x2="1701.27" y2="3456.67" stroke="#0030AA" stroke-width="2"/>
<circle r="7" transform="matrix(0.939691 -0.342025 0.342016 0.939694 1715.71 3452.48)" fill="#0030AA"/>
<line x1="1729.46" y1="3446.41" x2="1902.37" y2="3383.48" stroke="#0030AA" stroke-width="2"/>
<circle r="7" transform="matrix(0.939691 -0.342025 0.342016 0.939694 1916.8 3379.29)" fill="#0030AA"/>
<line x1="1930.55" y1="3373.22" x2="2103.46" y2="3310.28" stroke="#0030AA" stroke-width="2"/>
<circle cx="2117.89" cy="3306.09" r="7" transform="rotate(-20 2117.89 3306.09)" fill="#0030AA"/>
<line x1="2131.65" y1="3300.02" x2="2304.55" y2="3237.09" stroke="#0030AA" stroke-width="2"/>
<circle cx="2318.99" cy="3232.9" r="7" transform="rotate(-20 2318.99 3232.9)" fill="#0030AA"/>
<line x1="2332.74" y1="3226.83" x2="2505.64" y2="3163.9" stroke="#0030AA" stroke-width="2"/>
<circle cx="2520.08" cy="3159.71" r="7" transform="rotate(-20 2520.08 3159.71)" fill="#0030AA"/>
<line x1="2533.83" y1="3153.64" x2="2706.74" y2="3090.71" stroke="#0030AA" stroke-width="2"/>
<circle cx="2721.17" cy="3086.52" r="7" transform="rotate(-20 2721.17 3086.52)" fill="#0030AA"/>
<line x1="2734.93" y1="3080.45" x2="2907.83" y2="3017.51" stroke="#0030AA" stroke-width="2"/>
<circle cx="2922.27" cy="3013.32" r="7" transform="rotate(-20 2922.27 3013.32)" fill="#0030AA"/>
<line x1="2936.02" y1="3007.25" x2="3108.93" y2="2944.32" stroke="#0030AA" stroke-width="2"/>
<circle cx="3123.36" cy="2940.13" r="7" transform="rotate(-20 3123.36 2940.13)" fill="#0030AA"/>
<line x1="3137.12" y1="2934.06" x2="3310.02" y2="2871.13" stroke="#0030AA" stroke-width="2"/>
<circle cx="3324.46" cy="2866.94" r="7" transform="rotate(-20 3324.46 2866.94)" fill="#0030AA"/>
<line x1="3338.21" y1="2860.87" x2="3511.11" y2="2797.94" stroke="#0030AA" stroke-width="2"/>
<circle cx="3525.55" cy="2793.75" r="7" transform="rotate(-20 3525.55 2793.75)" fill="#0030AA"/>
<line x1="3539.31" y1="2787.68" x2="3712.21" y2="2724.74" stroke="#0030AA" stroke-width="2"/>
<circle cx="3726.65" cy="2720.55" r="7" transform="rotate(-20 3726.65 2720.55)" fill="#0030AA"/>
<line x1="3740.4" y1="2714.48" x2="3913.3" y2="2651.55" stroke="#0030AA" stroke-width="2"/>
<circle cx="3927.74" cy="2647.36" r="7" transform="rotate(-20 3927.74 2647.36)" fill="#0030AA"/>
<line x1="3941.49" y1="2641.29" x2="4114.4" y2="2578.36" stroke="#0030AA" stroke-width="2"/>
<circle cx="4128.83" cy="2574.17" r="7" transform="rotate(-20 4128.83 2574.17)" fill="#0030AA"/>
<line x1="1069.66" y1="3809.95" x2="1242.56" y2="3747.02" stroke="#0030AA" stroke-width="2"/>
<circle r="7" transform="matrix(0.939691 -0.342025 0.342015 0.939694 1257 3742.83)" fill="#0030AA"/>
<line y1="-1" x2="184" y2="-1" transform="matrix(0.939692 -0.342021 0.342019 0.939693 1271.09 3737.7)" stroke="#0030AA" stroke-width="2"/>
<circle r="7" transform="matrix(0.939695 -0.342015 0.342026 0.939691 1458.09 3669.64)" fill="#0030AA"/>
<line x1="1471.85" y1="3663.57" x2="1644.75" y2="3600.63" stroke="#0030AA" stroke-width="2"/>
<circle r="7" transform="matrix(0.939694 -0.342015 0.342025 0.939691 1659.19 3596.44)" fill="#0030AA"/>
<line y1="-1" x2="184" y2="-1" transform="matrix(0.939692 -0.342021 0.342019 0.939693 1673.28 3591.31)" stroke="#0030AA" stroke-width="2"/>
<circle r="7" transform="matrix(0.939694 -0.342015 0.342025 0.939691 1860.28 3523.25)" fill="#0030AA"/>
<line y1="-1" x2="184" y2="-1" transform="matrix(0.939692 -0.342021 0.342019 0.939693 1874.38 3518.12)" stroke="#0030AA" stroke-width="2"/>
<circle r="7" transform="matrix(0.939695 -0.342014 0.342026 0.939691 2061.38 3450.06)" fill="#0030AA"/>
<line y1="-1" x2="184" y2="-1" transform="matrix(0.939692 -0.342021 0.342019 0.939693 2075.47 3444.93)" stroke="#0030AA" stroke-width="2"/>
<circle cx="2261.44" cy="3373.03" r="7" transform="rotate(-20 2261.44 3373.03)" fill="#0030AA"/>
<line x1="2275.2" y1="3366.96" x2="2448.1" y2="3304.03" stroke="#0030AA" stroke-width="2"/>
<circle cx="2462.54" cy="3299.84" r="7" transform="rotate(-20 2462.54 3299.84)" fill="#0030AA"/>
<line x1="2476.29" y1="3293.77" x2="2649.19" y2="3230.84" stroke="#0030AA" stroke-width="2"/>
<circle cx="2663.63" cy="3226.65" r="7" transform="rotate(-20 2663.63 3226.65)" fill="#0030AA"/>
<line x1="2677.39" y1="3220.58" x2="2850.29" y2="3157.65" stroke="#0030AA" stroke-width="2"/>
<circle cx="2864.72" cy="3153.46" r="7" transform="rotate(-20 2864.72 3153.46)" fill="#0030AA"/>
<line x1="2878.48" y1="3147.39" x2="3051.38" y2="3084.45" stroke="#0030AA" stroke-width="2"/>
<circle cx="3065.82" cy="3080.26" r="7" transform="rotate(-20 3065.82 3080.26)" fill="#0030AA"/>
<line x1="3079.57" y1="3074.19" x2="3252.48" y2="3011.26" stroke="#0030AA" stroke-width="2"/>
<circle cx="3266.91" cy="3007.07" r="7" transform="rotate(-20 3266.91 3007.07)" fill="#0030AA"/>
<line x1="3280.67" y1="3001" x2="3453.57" y2="2938.07" stroke="#0030AA" stroke-width="2"/>
<circle cx="3468.01" cy="2933.88" r="7" transform="rotate(-20 3468.01 2933.88)" fill="#0030AA"/>
<line x1="3481.76" y1="2927.81" x2="3654.67" y2="2864.88" stroke="#0030AA" stroke-width="2"/>
<circle cx="3669.1" cy="2860.69" r="7" transform="rotate(-20 3669.1 2860.69)" fill="#0030AA"/>
<line x1="3682.86" y1="2854.62" x2="3855.76" y2="2791.68" stroke="#0030AA" stroke-width="2"/>
<circle cx="3870.2" cy="2787.49" r="7" transform="rotate(-20 3870.2 2787.49)" fill="#0030AA"/>
<line x1="3883.95" y1="2781.42" x2="4056.85" y2="2718.49" stroke="#0030AA" stroke-width="2"/>
<circle cx="4071.29" cy="2714.3" r="7" transform="rotate(-20 4071.29 2714.3)" fill="#0030AA"/>
<line x1="4085.04" y1="2708.23" x2="4257.95" y2="2645.3" stroke="#0030AA" stroke-width="2"/>
<circle cx="4272.39" cy="2641.11" r="7" transform="rotate(-20 4272.39 2641.11)" fill="#0030AA"/>
<line x1="999.656" y1="3953.34" x2="1172.56" y2="3890.41" stroke="#0030AA" stroke-width="2"/>
<circle r="7" transform="matrix(0.939691 -0.342025 0.342015 0.939694 1187 3886.21)" fill="#0030AA"/>
<line y1="-1" x2="184" y2="-1" transform="matrix(0.939692 -0.342021 0.342019 0.939693 1201.09 3881.08)" stroke="#0030AA" stroke-width="2"/>
<circle r="7" transform="matrix(0.939691 -0.342025 0.342016 0.939694 1388.09 3813.02)" fill="#0030AA"/>
<line x1="1401.84" y1="3806.95" x2="1574.75" y2="3744.02" stroke="#0030AA" stroke-width="2"/>
<circle r="7" transform="matrix(0.939695 -0.342015 0.342026 0.939691 1589.19 3739.83)" fill="#0030AA"/>
<line x1="1602.94" y1="3733.76" x2="1775.84" y2="3670.83" stroke="#0030AA" stroke-width="2"/>
<circle r="7" transform="matrix(0.939695 -0.342015 0.342025 0.939691 1790.28 3666.64)" fill="#0030AA"/>
<line y1="-1" x2="184" y2="-1" transform="matrix(0.939692 -0.342021 0.342019 0.939693 1804.38 3661.51)" stroke="#0030AA" stroke-width="2"/>
<circle r="7" transform="matrix(0.939695 -0.342014 0.342026 0.939691 1991.37 3593.45)" fill="#0030AA"/>
<line y1="-1" x2="184" y2="-1" transform="matrix(0.939692 -0.342021 0.342019 0.939693 2005.47 3588.31)" stroke="#0030AA" stroke-width="2"/>
<circle r="7" transform="matrix(0.939695 -0.342014 0.342026 0.939691 2192.47 3520.25)" fill="#0030AA"/>
<line y1="-1" x2="184" y2="-1" transform="matrix(0.939692 -0.342021 0.342019 0.939693 2206.56 3515.12)" stroke="#0030AA" stroke-width="2"/>
<circle r="7" transform="matrix(0.939695 -0.342015 0.342026 0.939691 2393.56 3447.06)" fill="#0030AA"/>
<line y1="-1" x2="184" y2="-1" transform="matrix(0.939693 -0.34202 0.342021 0.939692 2407.66 3441.93)" stroke="#0030AA" stroke-width="2"/>
<circle cx="2596.69" cy="3370.2" r="7" transform="rotate(-20 2596.69 3370.2)" fill="#0030AA"/>
<line x1="2610.45" y1="3364.13" x2="2783.35" y2="3301.2" stroke="#0030AA" stroke-width="2"/>
<circle cx="2797.79" cy="3297.01" r="7" transform="rotate(-20 2797.79 3297.01)" fill="#0030AA"/>
<line x1="2811.54" y1="3290.94" x2="2984.44" y2="3228.01" stroke="#0030AA" stroke-width="2"/>
<circle cx="2998.88" cy="3223.81" r="7" transform="rotate(-20 2998.88 3223.81)" fill="#0030AA"/>
<line x1="3012.63" y1="3217.74" x2="3185.54" y2="3154.81" stroke="#0030AA" stroke-width="2"/>
<circle cx="3199.97" cy="3150.62" r="7" transform="rotate(-20 3199.97 3150.62)" fill="#0030AA"/>
<line x1="3213.73" y1="3144.55" x2="3386.63" y2="3081.62" stroke="#0030AA" stroke-width="2"/>
<circle cx="3401.07" cy="3077.43" r="7" transform="rotate(-20 3401.07 3077.43)" fill="#0030AA"/>
<line x1="3414.82" y1="3071.36" x2="3587.73" y2="3008.43" stroke="#0030AA" stroke-width="2"/>
<circle cx="3602.16" cy="3004.24" r="7" transform="rotate(-20 3602.16 3004.24)" fill="#0030AA"/>
<line x1="3615.92" y1="2998.17" x2="3788.82" y2="2935.24" stroke="#0030AA" stroke-width="2"/>
<circle cx="3803.26" cy="2931.05" r="7" transform="rotate(-20 3803.26 2931.05)" fill="#0030AA"/>
<line x1="3817.01" y1="2924.98" x2="3989.91" y2="2862.04" stroke="#0030AA" stroke-width="2"/>
<circle cx="4004.35" cy="2857.85" r="7" transform="rotate(-20 4004.35 2857.85)" fill="#0030AA"/>
<line x1="4018.1" y1="2851.78" x2="4191.01" y2="2788.85" stroke="#0030AA" stroke-width="2"/>
<circle cx="4205.45" cy="2784.66" r="7" transform="rotate(-20 4205.45 2784.66)" fill="#0030AA"/>
<line x1="1145.25" y1="4021.61" x2="1318.15" y2="3958.68" stroke="#0030AA" stroke-width="2"/>
<circle r="7" transform="matrix(0.939691 -0.342025 0.342016 0.939694 1332.59 3954.49)" fill="#0030AA"/>
<line x1="1346.34" y1="3948.42" x2="1519.25" y2="3885.49" stroke="#0030AA" stroke-width="2"/>
<circle r="7" transform="matrix(0.939695 -0.342015 0.342025 0.939691 1533.68 3881.3)" fill="#0030AA"/>
<line x1="1547.44" y1="3875.23" x2="1720.34" y2="3812.29" stroke="#0030AA" stroke-width="2"/>
<circle r="7" transform="matrix(0.939691 -0.342025 0.342016 0.939694 1734.78 3808.1)" fill="#0030AA"/>
<line x1="1748.53" y1="3802.03" x2="1921.43" y2="3739.1" stroke="#0030AA" stroke-width="2"/>
<circle r="7" transform="matrix(0.939691 -0.342025 0.342016 0.939694 1935.87 3734.91)" fill="#0030AA"/>
<line x1="1949.63" y1="3728.84" x2="2122.53" y2="3665.91" stroke="#0030AA" stroke-width="2"/>
<circle r="7" transform="matrix(0.939691 -0.342025 0.342015 0.939694 2136.97 3661.72)" fill="#0030AA"/>
<line x1="2150.72" y1="3655.65" x2="2323.62" y2="3592.72" stroke="#0030AA" stroke-width="2"/>
<circle r="7" transform="matrix(0.939691 -0.342025 0.342016 0.939694 2338.06 3588.53)" fill="#0030AA"/>
<line x1="2351.81" y1="3582.46" x2="2524.72" y2="3519.52" stroke="#0030AA" stroke-width="2"/>
<circle r="7" transform="matrix(0.939691 -0.342024 0.342016 0.939694 2539.15 3515.33)" fill="#0030AA"/>
<line x1="2552.91" y1="3509.26" x2="2725.81" y2="3446.33" stroke="#0030AA" stroke-width="2"/>
<circle r="7" transform="matrix(0.939691 -0.342026 0.342015 0.939695 2740.25 3442.14)" fill="#0030AA"/>
<line y1="-1" x2="184" y2="-1" transform="matrix(0.939693 -0.34202 0.342021 0.939692 2754.34 3437.01)" stroke="#0030AA" stroke-width="2"/>
<circle cx="2941.34" cy="3363.95" r="7" transform="rotate(-20 2941.34 3363.95)" fill="#0030AA"/>
<line x1="2955.09" y1="3357.88" x2="3128" y2="3294.94" stroke="#0030AA" stroke-width="2"/>
<circle cx="3142.43" cy="3290.75" r="7" transform="rotate(-20 3142.43 3290.75)" fill="#0030AA"/>
<line x1="3156.19" y1="3284.68" x2="3329.09" y2="3221.75" stroke="#0030AA" stroke-width="2"/>
<circle cx="3343.53" cy="3217.56" r="7" transform="rotate(-20 3343.53 3217.56)" fill="#0030AA"/>
<line x1="3357.28" y1="3211.49" x2="3530.18" y2="3148.56" stroke="#0030AA" stroke-width="2"/>
<circle cx="3544.62" cy="3144.37" r="7" transform="rotate(-20 3544.62 3144.37)" fill="#0030AA"/>
<line x1="3558.37" y1="3138.3" x2="3731.28" y2="3075.37" stroke="#0030AA" stroke-width="2"/>
<circle cx="3745.72" cy="3071.18" r="7" transform="rotate(-20 3745.72 3071.18)" fill="#0030AA"/>
<line x1="3759.47" y1="3065.11" x2="3932.37" y2="3002.18" stroke="#0030AA" stroke-width="2"/>
<circle cx="3946.81" cy="2997.98" r="7" transform="rotate(-20 3946.81 2997.98)" fill="#0030AA"/>
<line x1="3960.56" y1="2991.91" x2="4133.47" y2="2928.98" stroke="#0030AA" stroke-width="2"/>
<circle cx="4147.9" cy="2924.79" r="7" transform="rotate(-20 4147.9 2924.79)" fill="#0030AA"/>
<line x1="4161.66" y1="2918.72" x2="4334.56" y2="2855.79" stroke="#0030AA" stroke-width="2"/>
<circle cx="4349" cy="2851.6" r="7" transform="rotate(-20 4349 2851.6)" fill="#0030AA"/>
<line x1="1078.31" y1="4161.16" x2="1251.21" y2="4098.23" stroke="#0030AA" stroke-width="2"/>
<circle r="7" transform="matrix(0.939691 -0.342025 0.342015 0.939694 1265.65 4094.04)" fill="#0030AA"/>
<line x1="1279.4" y1="4087.97" x2="1452.31" y2="4025.04" stroke="#0030AA" stroke-width="2"/>
<circle r="7" transform="matrix(0.939691 -0.342025 0.342016 0.939694 1466.74 4020.85)" fill="#0030AA"/>
<line y1="-1" x2="184" y2="-1" transform="matrix(0.939692 -0.342021 0.342019 0.939693 1480.84 4015.72)" stroke="#0030AA" stroke-width="2"/>
<circle r="7" transform="matrix(0.939691 -0.342025 0.342016 0.939694 1667.84 3947.65)" fill="#0030AA"/>
<line x1="1681.59" y1="3941.58" x2="1854.49" y2="3878.65" stroke="#0030AA" stroke-width="2"/>
<circle r="7" transform="matrix(0.939694 -0.342016 0.342025 0.939691 1868.93 3874.46)" fill="#0030AA"/>
<line x1="1882.69" y1="3868.39" x2="2055.59" y2="3805.46" stroke="#0030AA" stroke-width="2"/>
<circle r="7" transform="matrix(0.939691 -0.342025 0.342016 0.939694 2070.03 3801.27)" fill="#0030AA"/>
<line x1="2083.78" y1="3795.2" x2="2256.68" y2="3732.27" stroke="#0030AA" stroke-width="2"/>
<circle r="7" transform="matrix(0.939691 -0.342025 0.342016 0.939694 2271.12 3728.08)" fill="#0030AA"/>
<line x1="2284.87" y1="3722.01" x2="2457.78" y2="3659.08" stroke="#0030AA" stroke-width="2"/>
<circle r="7" transform="matrix(0.939691 -0.342024 0.342016 0.939694 2472.21 3654.88)" fill="#0030AA"/>
<line x1="2485.97" y1="3648.81" x2="2658.87" y2="3585.88" stroke="#0030AA" stroke-width="2"/>
<circle r="7" transform="matrix(0.939691 -0.342026 0.342015 0.939695 2673.31 3581.69)" fill="#0030AA"/>
<line x1="2687.06" y1="3575.62" x2="2859.97" y2="3512.69" stroke="#0030AA" stroke-width="2"/>
<circle r="7" transform="matrix(0.939691 -0.342026 0.342015 0.939695 2874.4 3508.5)" fill="#0030AA"/>
<line x1="2888.16" y1="3502.43" x2="3061.06" y2="3439.5" stroke="#0030AA" stroke-width="2"/>
<circle r="7" transform="matrix(0.939695 -0.342014 0.342026 0.93969 3075.5 3435.31)" fill="#0030AA"/>
<line x1="3089.25" y1="3428.24" x2="3262.15" y2="3365.3" stroke="#0030AA" stroke-width="2"/>
<circle cx="3276.59" cy="3361.11" r="7" transform="rotate(-20 3276.59 3361.11)" fill="#0030AA"/>
<line x1="3290.34" y1="3355.04" x2="3463.24" y2="3292.11" stroke="#0030AA" stroke-width="2"/>
<circle cx="3477.68" cy="3287.92" r="7" transform="rotate(-20 3477.68 3287.92)" fill="#0030AA"/>
<line x1="3491.44" y1="3281.85" x2="3664.34" y2="3218.92" stroke="#0030AA" stroke-width="2"/>
<circle cx="3678.77" cy="3214.73" r="7" transform="rotate(-20 3678.77 3214.73)" fill="#0030AA"/>
<line x1="3692.53" y1="3208.66" x2="3865.43" y2="3145.73" stroke="#0030AA" stroke-width="2"/>
<circle cx="3879.87" cy="3141.54" r="7" transform="rotate(-20 3879.87 3141.54)" fill="#0030AA"/>
<line x1="3893.62" y1="3135.47" x2="4066.53" y2="3072.53" stroke="#0030AA" stroke-width="2"/>
<circle cx="4080.96" cy="3068.34" r="7" transform="rotate(-20 4080.96 3068.34)" fill="#0030AA"/>
<line x1="4094.72" y1="3062.27" x2="4267.62" y2="2999.34" stroke="#0030AA" stroke-width="2"/>
<circle cx="4282.06" cy="2995.15" r="7" transform="rotate(-20 4282.06 2995.15)" fill="#0030AA"/>
</g>
</svg>
